<mxfile host="app.diagrams.net" agent="Mozilla/5.0 (X11; Linux x86_64) AppleWebKit/537.36 (KHTML, like Gecko) Chrome/131.0.0.0 Safari/537.36" version="26.0.4">
  <diagram name="Page-1" id="xNquHpSUCTILsk2Q1wZo">
    <mxGraphModel dx="2736" dy="757" grid="1" gridSize="10" guides="1" tooltips="1" connect="1" arrows="1" fold="1" page="1" pageScale="1" pageWidth="850" pageHeight="1100" math="0" shadow="0">
      <root>
        <mxCell id="0" />
        <mxCell id="1" parent="0" />
        <mxCell id="vy29rzJiq_IoitSe4QNg-1" value="d" style="rounded=0;whiteSpace=wrap;html=1;movable=0;resizable=0;rotatable=0;deletable=0;editable=0;locked=1;connectable=0;shadow=1;" parent="1" vertex="1">
          <mxGeometry y="80" width="1130" height="560" as="geometry" />
        </mxCell>
        <mxCell id="vy29rzJiq_IoitSe4QNg-2" value="" style="rounded=1;whiteSpace=wrap;html=1;dashed=1;movable=1;resizable=1;rotatable=1;deletable=1;editable=1;locked=0;connectable=1;" parent="1" vertex="1">
          <mxGeometry x="80" y="130" width="880" height="400" as="geometry" />
        </mxCell>
        <mxCell id="vy29rzJiq_IoitSe4QNg-3" value="" style="outlineConnect=0;dashed=0;verticalLabelPosition=bottom;verticalAlign=top;align=center;html=1;shape=mxgraph.aws3.api_gateway;fillColor=#D9A741;gradientColor=none;" parent="1" vertex="1">
          <mxGeometry x="-110" y="280" width="70" height="73" as="geometry" />
        </mxCell>
        <mxCell id="hHlLdTVB4ddLlGjyFDcW-1" value="" style="endArrow=classic;html=1;rounded=0;dashed=1;entryX=0.099;entryY=0.466;entryDx=0;entryDy=0;entryPerimeter=0;fillColor=#a20025;strokeColor=#6F0000;strokeWidth=2;flowAnimation=1;" parent="1" edge="1">
          <mxGeometry width="50" height="50" relative="1" as="geometry">
            <mxPoint x="-40" y="310.08446446801906" as="sourcePoint" />
            <mxPoint x="150.28999999999996" y="310.0000000000001" as="targetPoint" />
          </mxGeometry>
        </mxCell>
        <mxCell id="hHlLdTVB4ddLlGjyFDcW-3" value="" style="endArrow=classic;html=1;rounded=0;dashed=1;entryX=0;entryY=0.5;entryDx=0;entryDy=0;fillColor=#a20025;strokeColor=#6F0000;strokeWidth=2;flowAnimation=1;" parent="1" target="hHlLdTVB4ddLlGjyFDcW-5" edge="1">
          <mxGeometry width="50" height="50" relative="1" as="geometry">
            <mxPoint x="50" y="310" as="sourcePoint" />
            <mxPoint x="160" y="240" as="targetPoint" />
            <Array as="points">
              <mxPoint x="110" y="190" />
            </Array>
          </mxGeometry>
        </mxCell>
        <mxCell id="hHlLdTVB4ddLlGjyFDcW-4" value="" style="endArrow=classic;html=1;rounded=0;entryX=0;entryY=0.5;entryDx=0;entryDy=0;dashed=1;fillColor=#a20025;strokeColor=#6F0000;strokeWidth=2;flowAnimation=1;" parent="1" target="hHlLdTVB4ddLlGjyFDcW-6" edge="1">
          <mxGeometry width="50" height="50" relative="1" as="geometry">
            <mxPoint x="50" y="313" as="sourcePoint" />
            <mxPoint x="130.2199999999998" y="333" as="targetPoint" />
            <Array as="points">
              <mxPoint x="110" y="420" />
            </Array>
          </mxGeometry>
        </mxCell>
        <mxCell id="hHlLdTVB4ddLlGjyFDcW-5" value="STUDENT MS" style="rounded=1;whiteSpace=wrap;html=1;shadow=1;" parent="1" vertex="1">
          <mxGeometry x="150" y="175" width="120" height="40" as="geometry" />
        </mxCell>
        <mxCell id="hHlLdTVB4ddLlGjyFDcW-6" value="CONTENT&lt;div&gt;GENERATION MS&lt;/div&gt;" style="rounded=1;whiteSpace=wrap;html=1;shadow=1;" parent="1" vertex="1">
          <mxGeometry x="140" y="400" width="130" height="40" as="geometry" />
        </mxCell>
        <mxCell id="hHlLdTVB4ddLlGjyFDcW-7" value="COURSES&lt;div&gt;MGMNT MS&lt;/div&gt;" style="rounded=1;whiteSpace=wrap;html=1;shadow=1;" parent="1" vertex="1">
          <mxGeometry x="150" y="290" width="120" height="40" as="geometry" />
        </mxCell>
        <mxCell id="hHlLdTVB4ddLlGjyFDcW-11" value="" style="shape=image;verticalLabelPosition=bottom;labelBackgroundColor=default;verticalAlign=top;aspect=fixed;imageAspect=0;image=data:image/jpeg,/9j/4AAQSkZJRgABAQAAAQABAAD/2wCEAAkGBxAQEhMQEhIWFQ8VGBUVFxYQFxkYFhUWFxUWGBcVFRYYKCgsGBslGxgXIjMiJSktLi4uFx8zOTMuOCguOisBCgoKDg0OGxAQGy0mHyYtLS0vLi8tLS0vLS8tLS0tLS0tLy0tLS0tLS0tLS0tLS0tLS0tLS0tLS0tLS0tLS0tLf/AABEIAKQBNAMBEQACEQEDEQH/xAAcAAEAAQUBAQAAAAAAAAAAAAAAAwECBAUGBwj/xABFEAABAwIDBQYDBQUFBwUAAAABAAIDBBESITEFBhNBUQcUUmFxkSIygSNCobHBCBUzYnJjgpLR8BYXQ1NUotIkg5Oy8f/EABoBAQADAQEBAAAAAAAAAAAAAAABAgMEBQb/xAA1EQACAQIEAgcHBQADAQAAAAAAAQIDEQQSITFBUQUTIjJxgaEUYZGxwdHhFSMzQvA0UvEG/9oADAMBAAIRAxEAPwDyXiu8R9yvUsjiuxxXeI+5SyF2OK7xH3KWQuxxXeI+5SyF2OK7xH3KWQuyJ8rr/MfcrNpXNE9C3iu8R9yosibjiu8R9ylkLlzJXeI+5Xbg0u15fUrJl3Ed4j7ldtkVHEd4j7lLIDiO8R9ylkBxHeI+5SyA4jvEfcpZAcR3iPuUsgOI7xH3KWQHEd4j7lLIDiO8R9ylkBxHeI+5SyA4jvEfcpZAj4rvEfcrxbI0uOK7xH3KWQuOK7xH3KWQuOK7xH3KWQuOK7xH3KWQuOK7xH3KWQubChkdh1Op5lVluYzbuZGM9T7qpS7GM9T7oLsYz1Puguyj3mxzOnVAmzUcV3iPuVpZHTccV3iPuUshccV3iPuUshccV3iPuUshccV3iPuUshccV3iPuUshccV3iPuUshclildb5j7lGiQtjAnoqR0rsLfUk6AdStsPh5155Y/+GdWtGlHNI237mgHwum+Ppdo/7TmvU/TsPF5ZVO14pehwe21n2ow08/mYdZs10Jz+Jh0P6EciuLE4KeHeuq5nRSxMaq00Zj2C5TW5jyDMqjWprHYikCpI0iRqpYqCtIVJQ7osVxFae01CLDEU9pqCwxFPaagsMRT2moLDEU9pqCwxFPaagsMRT2moLDEU9pqCwxFPaagsMRT2moLDEU9pqCxauckIAgCAIAgNjQfL9SqS3MZ7mQqlAgCAo/Q+hQlGnWp0BAEAQBAEAQEsWihkovWxibLZu0WwxvbY8R17EWsMvhvnyN16GFxkaFKSs8z2enLT1OTEYaVWcXfRf5mBJE8DE5rrHm4GxvnqdVxShNLNJOz4tPXz4nTGUW7JrQ3tK4vpDiztexPkcvxy+i9im3PAPPw28tvseZUSjillNQvHO8gk1Kq9zWOxDKqSLxI1QuEAQBAEAQBAEAQBAEAQBAEAQBAEAQBAb47JqKeKF80TmMmaZIy8EYm4i3nzyvbo5p0IWbab0M6iaZEoMi4Rkgut8Itc9L6KLq9iHJJpFqkky9swQRvLYJjNFgYcZYWfEWAuGE30Nx/+XJX4lmknoc2tTcIAgCAIAgCAli0UMlF62MTLoZ2i8b7CJ3zEC7hYXGE+oHJdOHqxV6c+693x91vP3GNam324d5bcvMzYaqOX7KUgQx/IcwXAfC2/X4ell2U69Kt+1VayR23TdtFfy8DmnSnT7dNdp78bcX6la/aLXjhRC0Ytyte2gA6KMXjITj1VJdlepFHDyg89TdmvXnHUQSalVe5rHYhlVJF4kaoXCAIAgCAIAgCAIAgCAIAgCAIAgCAICoNs+aA6ar3lrKyGKOonfIyEYWhzicWZIe/xvscOI52aPO+WRRehnVk3oY9JTule1jdTz6DmVWc1COZnPVqKnFyZ1po2Mj4YHw878+pPmvM6yUp5nueIq05VM7epy20aQxOt905tPl09QvRpVM6uexQq9ZG/ExH6H0K0N0adanQEAQBAEAQBASxaKGSi9bGIQBAAUBXEeqCyIXk3Oazb1NElYtuoJKIAgCAIDN2XRslfhdIGeXN3k0nL/Wi68Hh4Vp5Zyt834cP9sc+JrSpRvGN/p4mw2zsiGJuJr8J8LiTi/p53/D0Xdj8BRpRzRlb3PW/hx+ngcuExdWpLLJX964fT6+Jol4x6QQBAEAQBAEAQBAEAQBAEBsaD5fqVSW5jPc6fdaH55PRo/M/ouDGS2ieT0jPuw8zdz6LkjuefT3NTtmHFETzb8Q/X8PyXTQlafid2FnlqW5nNP0PoV3nrI061OgIAgCAIAgCAli0UMlFmIq12VshiKXYshiKXYshiKXYshiKXYsiigkogCAIAgCAIC5ziTckk9Sbn8VLk5O7ZCSWiLVBIQBAEAQBAEAQBAEAQBAEBsaD5fqVSW5jPc6/dg/ZO/rP/ANWrzcX314HidIfyLw+rNnPoueO5yU9zBrv4cn9LvyK2p99eJ1Uf5I+KNVunsmKsqoqeaZsMb3AEuvd2f8NhAID3aAusM+ZsD6MnZXPchFOVmc1tSlZDLJEyZk7GOIEsQcGvA5gOA/UdCRmdIu6ubyVmYisQEAQBAEAQEsWihkoiUkBAEAQBAEAQBAEAQBAEAQBAEAQBAEAQBAEAQBAEAQAlAdnu1uNtOpYCyle1hPzz/Ztt1GOxcPNoKxnOKe5nOLudlTdn9bQwyTSvic0WJZCXOIA1dcgaXz9FxYlqaTXA87pDDtwzrh8vwa2fRcsdzyKe5k7L3Xn2iyVkTmsDQLukvhJJ+XK+dgfT6ropWUrs9LB0nOebgjVbV7NdqwAkQtmABzpnhx+jXYXH6ArtVSLPUyO555PA+Nxjka5kjcnNeC1zT0LTmFunfY3aaI1JBVALIBZAEBRASxaKGSiJSQEAQBAEAQBAEAQBAEAQBAEAQBAEAQBAEAQBAEAQEtLTvleyKNpdI9zWMaNXOcQ1rR6kgKG7K5KVz6T7PuzOl2axksrWzV9rukcLtjPhhB0tpi+Y56A2HJOo5P3G0Y2N3vdvPT7PaHykl7vkjZ8z7anPRouLk/iUp0ZVHZGFeai7s8w2r2n10lxGyOFhGXw8R1sx8z8iNfu9V2xwdNb6nHKvJ7I1WzKkS09S9+T4mscLAAOu+2g06ZdVyVMClUWV6P0OKGEVptPl8y7Ye/dbRt4cfDMVycD2DU6/E2xPqSeS7PY6VrHRSm6ccq2PSN0O0CCue2CRnBqD8oJxMf5MdlY+RHoSuSthZQ1WqOunVUnbidBvTunR7Sj4dTEHEAhsjbCWO/Nj+XpmDbMFZRk47Hc1c+Zd991pdl1TqaQ4m2D45ALCSM3AdbkQQQR1HSy64TzK5jKNjRMVypdZALICjggLEBLFooZKIlJAQBAdBNuTtNkBqnUjxThnFL7tI4dsWOwN7Wz0VOsjexfIzn1codBs/cnadRC2oipJHwOBc14LQCASCQCQbZFUdSKdi+RnPgq5QIAgCAIAgCAIAgN3sTdLaFawy0tM+WNriwuaWgBwDXFvxEcnNP1VJTitGWUWzJrNwtrQtL30M2Ea4Gh9vMhhJsiqRfEnIzm7q5U6v/dvtn/oZPeP/wAln1sS2Rmr21uxXUQDqmlliYcg5zbsv0xtuL+V1ZTi9iHFo1CsVCAIAgN9uJWtg2jSTPF2MlaXeQsQTbna9/orQous+rjuyJVFTWZ7H1rG8OAc0gtIBBGYIOhB5hec007M6U76o8q7Yt3qh8rK6NhkhbGI3taCSzC5zsRAzwHFmRpbPVduEqRSyM48VSbeZHFbw7dFe2nYymjjMUbWEwtNyQXZDPKPMEA5gl2ea3jFUruUvj/tzkrVlJK6tYwYaWoax7A2zZA0OBLcw1wcOeWYCzeLoXTvt7mc/tEEmr7mHNTPZ8zSPy9wt6daFTuu5aM4y2Zv9w936isqonRtIiikY98v3W4HB1gebzYAAdb6KtepGEXc6aFOUpJ8D6HXknqngP7Qm0I5KqmiZYuiZIHkcnOcw4fUAA/3l3U6EoU4zl/a9vK2pzyqKUnFcLHlkI1ViCXCoAwoCyUZICFSCWLRQyURKSAgKO0KErc+udgmI0FHFLYtmgiiDXaPvT4nM/wNefQFcL3ZufNFdunMzabtlNuZOMImuOfwOsWSED+zIcfqupT7GYyy9o+oYoIYad1NFkyCIRhvhaI7NB87AH6+a5DY+aOz3cSo2u9wY4RU8duJK8F1iRkxjcsbudrgAanMX651FFGSjdnay9jtJO2RtDtNktTFk9jixwDswGvMZvFmDmQdDks+ufFFsiOQ3E3HO0K6agne+nkhjke6wDnB7JI2Fpvlb4zmOgWk6lo3RWMddTsdndi8BkfFUV+CUufwomYOKYmuIbK8E53AvYDLr0zdZ8EWyI4PfDcuo2dWNoieM6XBwXMGHi43YGjCScLsWVrnlnmtI1E1co42Z3TuxqnghaazaTIKh9g2+BsWMj5AXkGQ+lvRZ9c3si2RGr3r7Kv3fs51bJUONQzhh0YaOHidK1hwu1IzuMuimNW8rBwViDcrsudWU/fquobS0di5pcBicwXBkJcQI2dCb3GdgLEzOrZ2REYczJ3m7KBHSurtn1bauBoLnAYSS1t8bo3sJD7WN22ByOpyURra2kS4cjr+wWQt2VVubqKiYj1FNAQs6vfLQ2OP2F21bRZKw1XDlpyRjDWYXhp1cwtOo1sQb2tlqNJUVbQqp62Nh+0Du3FE6HaETQ3jF0cuHIOfhxMkt1LQ4E87DzVaUtGiZLid52tbV2nTU8DtncTiuks/gwiY4MDjm0tdYXtnZUp5b9os720MbZu1Z5th1Eu2mCMlszPtG8N8jMIDCY8sMheSAAAcmkao0lLshbanzeF2GDCEBAEBm7G/jxf1foV14H/kQ8Tnxf8ADLwPZ9i7xV2zGRiRhfSSND2B5ys4X+zkF8J6tN/QXuvXxOCw2OlLK7TWjt7ua4+PqefRxNfDJZleL2/DO42Xv9QTWDpDE/wzCw/xi49yvCr9DYqnssy9323PUpdIUJ8beJkybE2XVkvEcL3OzL4HAFx6l0ZGL6rzqtKotKiatzuaTo0K+rSfh+DHO4VD4XjyEh/VYZEYfpmH5P4slZujs2IXfE0jnx3FzT6tebfgrwpu94rU0hgsPTd7fF/cvqt69m0rQ0TR2bkGQfHa3IBmTfrZd9LozFVXpB+enzLTxlCnvJeWvyOK3h7SZZQY6VhiacuI+xkt/KBkz1uT6L3MJ0FCDzVnmfJbfn0PMxHSjkrUlb38Tx/e9xL4yTckPJJ1Ju3MqOmVaUEuT+hPRjbU2/d9TTUw1+i8RnpM6/crcSp2q4mNzI4GGz5XkEtNr2bGDdxt1sPNZzmoloxubHfnszqNmtM7JGzUgtdxIZIy+gcwn4uWbSSegUQqqWhMo21OBqBl9VqiiMZSSSxaKGSiJSQEBR2hQlbn0Hv3tR9HsfZdVH88MlE8C9sVoHXaT0IuD5FckFeTRs9jqmbGo5quHbocLClIBIywuAc2a/IiN0jfR3kqXdrEmg7LttOr4NqVbsuLUyFoOoYKeJsbT5hgaPorTjlaQTuavsbxP2FVMp8qq9SBbXiuhbwz7YM/LyU1O/qFscf2BU8v7zcWtcGMhkbLkRhu5mFjuhxAZfynotKrWWyKQvc7jdt7DvVtHBp3YA20xDuYd+OXqCs3/Giy3PPttSu/2mxXOLv9O2/O3Eibb0w5ei0S/bKvvHovaA9jdu7FL7YbyDPxEgM/7y1Zx7rLvc5T9oWjqDWU0mF7qcwiNhAJbxeI8vbl94gx+tvJXotalJ3Om34gmj3XZHMCJ2xUbXB3zAiWL4XeY0PoqQ75d7EfaS10m7lM6m/gBtI54b/yRGLXHQO4ZPS3kkLKepEttCn7PjHsoaqSTKndMXNLvlOGNokcL6jIC/8AKeims05aCGw7C7HZFZhBtx57Dnbu0Fgoqd4LY8d2FunXVkrII6eW7iGl7o3BkYOr3uIsABn56DMreU0kUUXc9V/aJ2hGynpKIG8mIzEc2sYx0bSfUudb+hyxpLdl5M6jte3krdn08ElGbPfJgddgf8OBx0OmYCrTipPUluxh7jySbfoZW7VpWnC8tilMeBxBaLvjv8rgfvNsDpyN07Rl2WFqtT54lYGuc0ODgCQHDRwBtiHkdV2Iwe5YhAQBAZmxzaeL+r8wQurAu2Ih4nPil+zLwPZNhbQlZEI4HsmjI+0pKoAgn7xjvy55Hnnde1iqMJTzVE4vhOP1PPw9SShaDTXGL+hSdmypDaWKoopc7hv2kV/R3xewASLxsF2JRqL4P7fEiSw0n204P4oi/wBmaN+ce04CP7ZpiP1xFW9vxEdJ0JeTv8iFhKT7tVeehhbX2QaZgcKuCUF2HDTS43DIm5byGVvqFvh8Sq8mnTlHjeUbGNai6UbqafgzSldpy3L4Iw5zWlwaCQMTtG3NsR8hqok8sW7XJis0krmyqqKmiFQwzmSZjmCIxC8UjSfjcXeQ/Ec+XNTq1puDyWi0733XL/fI3nTpQUlmu1tbZnC72n4ovR35tXk9NPtw8H9Dv6M7svL6mrohe/0/VeIz0ZOx1O71FUwyNqGSvgeNDGbPI6EaYfJwI8l6OH6MlU1q6Llx/BwVekIw0hq/T8ku9NRVVshlmmdKRfC19g1g/s2iwb7XPMlUq4BRv1Xw/JanjHJds5WtYQLEWN+a4bNOzOyDT2MFSXJYtFDJREpICAEIDtN5u0KWuoYdnugYxkPCs9riS7hRlguCMr3uso08srl3O6sWU/aJVs2Y7ZIa3hlrmcUk8QRufidHbS1i5vkD5KeqWa5OfQk3J7RJdl081MyBkjZXl5c9xaRdjWWAAz+W/wBVE6eZ3EZ2Rq9yt8KvZMhkpy0seAJI5ASx4GhyzDhc2I681acFJEKVjtto9uNU6NzYKSKCV2shcZLG3zBuFov63HkVmqHNlusOO3L3ym2ZVSVgYJ5ZWPY7iuIJL5GSOeXC9zdn4rScMysVjKzMSr3ifJtD95GNofx2VHDucN2Oa7Di6HDr5pk7OUZtbm23w3xl21UUpcyOmcw8Nr+I7C0ve2z3vtdgaQDcaaqsYZEyXK56rW1+9dHFHEIKWseW240WK7Te32jXFlzbO4AHXzwSgzTUi7UJ5INgMhrJAa6XgB2YJdKJGyyWtlYBrtMtLclNNXnoRLY843I7T6zZkfd8DJ6UXLY5CWuZc3IY8Xs0kk2IOuVltOkpalIzsZO9/azV10DqWOJlNTvGF4jcXPe3mzFYYWnmALnS9r3iNFJ3Yc+Rjbh9pU2yYH07KdkrXymXE95aQSyNlrAafAD9VM6WZ3EZ2Rvazt0rnNIipoI3eJxe+3oPhz9VVUFzJ6w8z2vtKerlfPUSOkmf8z3W+gAGQA5AWAWqikrIpm1uep/7+Kn/AKKL/wCR3+Sx6j3l+sRqd4u2XaFVE6GNkdO14LXOjLnSWORDXH5bjmBfoQrRopbkOpyPN1sZhAEBVErgqLjMZEZ+iuoS3RDsd/urT1dbE+SOnkcIrYnsb8JPRvV2hLRe119Fh+k6bShWaUvR/bzPHr9H1IvNT1Xqjaw7bqY/gLsQGRbMMX0N8/xXZLCUZ9pK3vWhyrE1Y6P1JBtiM/PSQk/yAs/K6r7LNd2pLz1LLER4wRjV9XDI0COARuvckPLrixysf9ZLSlSqRd5Tv5FKlSElaMbGCtzAIDKk2XVcB9U2mlfCwXJY0m46gfeA5kXsMyuPEY+hQeWUu1y+/LzOujgqtXVLTmedVtU6Z5kdqdANAOQC+axE6labnL/w9ujSjShkiSbN2g+nfjaGnkQ4cvI6g+n4qtGtKjPMl8SK1GNaOVnY7L23DPYA4ZPA7U/0n735+S9yhjadXTZ8vtzPEr4SpS13XP78jG2hXRw3xHPOzRm4/T/Nc1atGm3c3o0p1O6cztLaTpjoA0aDU/UrzK1Z1XsepRoKmt9TBWBsSxaKGSiJSQEAQBAEAQBAEAQBAEB0Wy9+tq0zBFDWStjAs1rsLw0DQNxg4R5BUdOLLKbNVtba1TVv4tRM+WTQGVxNh0aNGjyFlZRS2IbbMJSQEAQBAEAQBAEBWyvGDYL4YnPcGNaXPcQGtaCXOJ0AA1PktMkVqxqw9haS0ghwJBBFiCNQQdCtFbgQzZbr7J77V09JfCJZGtcRqG6vI88INvOypUlli5ExV2fW+zqGKnjZBCwMhYA1rW6AD/WvNeQ227s6Ty/tj2y1kjKVkTOIWCR0rmNLw0ucGsY46fKbn0XpYCdWHajJpcr6fDY87GqLdmjzQVj/ACPqP8l7Eekay3s/L7WPMeGgy7vzugV/1SpyRX2WPNlDWu8lV9J1nsl/vMlYWHvN7uRtwQVcQliZLHI9jDjY0uYXOsHxnkQTn1C4cViK9WD7bXhp8jqw8IQktD6FXgntnzn24btxUdYyaEBsdS1zyxuQbIwgPLRyBxNNut16OFm5Rs+BjUXE84XUZiyo6aYuVDXPdYAueely4n8yspxa7TfmLqK5IlrKGWEgSMLb6X0PoRlfyWMKkZ913KU60KivB3MdXNCWLRQyUU4TuivlZTOhwndEysZ0UdGRmQocWiVJMsUEhAEAQFwCArZALIBZAUIQFqAIAgCAIAgCAIC4Bbxp23IC0B6P2Ub70GznFlTStD3E/wDq4wXyNB+69puQ3+joLtJzXLiKMp6p+RpCSRB2p75UW0pB3akAc051T7tlkAysGN+7pYvufJqvhsPOO7E5pnJ7tVL4auCVhs9jw5vS4uc+oXpUaEZzUZbPQ5a9RwpuS4fc+pd2d5YK6MOYcMoHxxE/E087eJvQj8DkvGxuAq4WdpbcHwf59xvhsVCvG634o1+/O5UW0mtcHcOpYLNktcFt74HjmL3seVz5g40a7p+BatQVTxPK6zs72jCTihxsH3qc8TF6N+YfVq6KmNSXYV2ebWo1YbRv4f65iHdmYZGnnv5xvv8AkuR46tyXwONyr/8AV/BksW49dL/Cp5f/AHW4B/ifZb0sc27TXmb0o1puzg/l8zutyezPu8jKmre18jCHMijzY1wzDnOPzEagAWBGpU1sVmWWJ6VHDZXmkeg7QroqdhlleGRjUu/IDmfIZrnpUZ1ZZIK7OmdSMI5pOyPnHtd3gNfUxyAFsTWvbG062u0lzvMn9ByX0LwCw1OMX3ndv0+R59HE9fKTWytb1OEIWEoNHQVZa4vfDfO2tudr81m720DvbQ7zd1tJh+wsXW+LF/E/vdPpkvBxbr5v3fLl5f658/jHXzfu7cOXl/rmyrBGWO4uHh88dsP1uuaGbN2d/cctNzUlkvf3HnW1hTiQ93xYP5tL/wAt87eq9mn1lv3Nz6XD9bk/dtf3fXh8DHi0V2dCMldJyhARz6Ks9i8NzFWJsEAQBASMCAusoAsgFkBRwQESkBAEAQBAEAQFwW9ONlchhaAICoC0hC+rILluQZeyP48f9X6Fb4f+WPiYYr+GXgdWK6WB+I4mgG7ZI7gtvpe2Yy5helOra6qK8ee68Gjx4QvZ03aXLb4HZbG7SqxgAL2Ts/nHxAdMTbfiCuCp0Rg6+tN28H9H+Drj0hiKWk1fxOlpu1OM/wASme0/2bw78w1cM/8A56f9JrzVvudMelof2izLHafRf8qo/wAMf/msv0DEf9o/F/Y0/VaPJ+n3IZu1GnHyQSk/zljfyJV4/wDz9X+015Xf2KvpanwTNJtDtNqn5RRRxDqbyOHoTYe4K7aXQFGOs5OXovq/U5qnS1R9xJepyO0tpT1Lsc0jpHcsRyHk0aNHkAvYo0KdGOWnFJf74nnVa06rvN3OS3q+aP0f+bVw9Ibx8z0eje7Ly+po15x6RaQsZw4okuikc0hzSQ4aFpsR6FYuKkrMiSUlZ7G6koaupGKV+g+Fr8vrhHy+trrrw3RMlFuKUfHdnnrEYag8sF4tffj8jTVNO+M4XtLT58/MHmuWvRlB2krM76dSM1eLuikWi42aoyV0nKEBHPoqz2Lw3MVYmwQBAEBPEMlAL8KEGdTbEqpYX1MdPK+nZ80jWEsGt8+drZ2052UZknYtldrmAApKlHjIoDHUkhAEAQBAEAQFy6yAgCAuC6od1FSqkE1FMI5GPOgIJ9ND+C0pTyTUmZ1oOdNxXFHpVNtON7GsmZjYAAySOwka3lY6OHquypgqkZuthZ2b1aesX7+a8UfNOLTIZd3aWY3imjv0kvE/3+8VzTryj/yMPJe+HaXjpZrzNY4ipHT8kTt0KsfIZCOrZGuH0uVWPSOD266SfJp/Yv7VF7xXwI37HqYPilxYT8IxAa68vIFd2DxVKrNqFXNpt9Sk6kJK0UkWL0TMvgc0OaXNxMBBc29sQBzbcaXGV1Ek3FpOzLRaTTa0NjVbUjtPFDAxkMrmubju+SMNIIDJDpfO+upC5oYeV4TqTblFPbRO/NG868bSjCKSfxXmcJvLUNdI1ozwAg+ptl9LD3XFjqilNRXA9Do+m403J8TULiO8ICxchYz6ba80bS0OuOWIXLfQ/wCdwuunja1OOVP48DlqYSlOWZr4cTDlkc4lziS48zmuaUpSd5O7OiMVFWirIRaLie5ojMX0ZyBARzaKk9i0dzHWJqEBQrOr3JeDCI15JcyqcZKGQzfbo1VDDUNfXU7p4PC11g03+ZzP+KP5SQNcjoqSTa0Ji0nqfSWy949nyU3eIZ4hSMABNwxsQtk17Tbhm1vhIC5XF3sze54N2lbW2VVTYqCnLH3Jkmb9nHL1tDbM3N8Zwk9De66aaktzKck9jipG5H0K0KGGpJCAIAgCAIAgLgumLuiArAIC4Fb05cCGVWhAQGbs/askOQ+Jnhdy/pPJb0cTOlotVyOavhYVtXo+f3N7T7egfqSw/wA4y9wvRp46lLfQ82pgKsdtfA2FPVsObJB/ccP0XRnp1Fun6nLKnOPeTMh873CznOI6OJI/FTClTg7xil4IoQvkaNSB6mys5RW7JUW9kYU+2Kdn/EDj0Z8X5LnnjKMeN/DU6YYOtL+tvHQ09dt97/hjGBvU/N9PD+K4a2OlPSGi9Tvo9HxjrN3+X5NQuJHeEBQlUnKyBaucsEAUN2VwXxaLkZZGWvozkCAsm0VZ7Fo7mOsTUIChWdXuS8GERryS5m0o+H6qrKs3+zN25JbOkvGzz+c+g5fX2XLUxUY6R1ZwV8fCGkdX6HRfuinYzhiNpabXxZkkXsSeuZ9L5Lj66ble55qxNWU8zZodo7uEXdCbjwu1+h5/X8V108SnpI9Cljk9KnxNBURlocCCCAbg5EZcwupO+x3xaeqNcrmgQBAEAQBAEBUK0ZZWCq6U77EBAEBUFaxqcyLFy1TT2ICkCyWBaWhRlJuMA6KMouxgCZRdlbKbEFVICN2BQlZSqcibFqybuSFACXsChK55zzEkkWizZKJOMfJe91jMMiHGPknWMZEUdITkoc2yVFIsVSwQFCs6vcl4MIjXklzfbsbWhpz9pHc3yfqW+gP5ix9VzYilOa7L8jixmHqVV2JeXM76mqWStD2ODmnm39ei8uUXF2aPBnCUHaSsys+imIhuY73AAkkADUnIBXSuapNuyOT3k2zTyAsY0PfmMemH06/ku6hRnHVvyPVwmHqQeaTsuRyy6z0QgCAIAgCAIAgKqVJrYFbraNRPciwWgCAICt1dTkiBdW61ixW6nrULC6nrULC6dahYpdV633CwuqupJixRVvck227Boe8M7+JTS8+72xXuLYr54Nb4fi6LOpmy9nctG19ToO0h2wy9v7sD8eWPBfu9rfdD/ix6Xtl9brKh1v8Af8lp2OJutZVEjMosZSbJKKoJYtFDJQXtmYQBAEAQFCs6vcl4MIjXklwgMmhrpYHY43lp8tD5Ec1WcIzVpIpUpQqK01c6Zm+l47PivKNMJsw+Zvm30zXH7H2tHoea+jLT7MtPU57aO1Zqg/G74eTW5NH05/VdUKUYbHfSoQpLsrz4mCtDYIAgCAlj0V47FJblysVCAIAhJAsjQICqlSa2AutFVfEixW6uqkRYKykgFICAIAgCAKMyAuqupEWKXVHV5CwWbk3uSUUAIAgJYtFDJRNwgvZuZjhBLgcIJcDhBLgcIJcDgjzVKr7EvBkrcp3YdSvIuaWHdh1KXFh3YdSlxYd2HUpcWHdh1KXFh3YdSlxYd2HUpcWHdh1KXFh3YdSlxYljpxbmrxehSUdS7u481a5GUd3HmlxlHdx5pcZR3ceaXGUg7sOpWVzSw7sOpS4sO7DqUuLDuw6lLiw7sOpS4sO7DqUuLDuw6lLiw7uOpU5mLIr3cdSmdjKindx1KZmLId2HUqLiw7sOpS4sO7DqUuLDuw6lLiw7sOpS4sO7DqUuLDuw6lLiw7sOpS4sSR046lLk2P/Z;" parent="1" vertex="1">
          <mxGeometry x="213.65" y="145" width="56.35" height="30" as="geometry" />
        </mxCell>
        <mxCell id="hHlLdTVB4ddLlGjyFDcW-12" value="" style="image;sketch=0;aspect=fixed;html=1;points=[];align=center;fontSize=12;image=img/lib/mscae/Azure_Database_for_MySQL_servers.svg;" parent="1" vertex="1">
          <mxGeometry x="239.6" y="330" width="30.4" height="40" as="geometry" />
        </mxCell>
        <mxCell id="hHlLdTVB4ddLlGjyFDcW-14" value="API GATEWAY" style="text;html=1;align=center;verticalAlign=middle;whiteSpace=wrap;rounded=0;" parent="1" vertex="1">
          <mxGeometry x="-120" y="360" width="90" height="30" as="geometry" />
        </mxCell>
        <mxCell id="rYe8Sak9IraCX6kGYXkc-2" value="DISCOVERY SERVER" style="rounded=1;whiteSpace=wrap;html=1;shadow=1;" vertex="1" parent="1">
          <mxGeometry x="130" y="570" width="155" height="40" as="geometry" />
        </mxCell>
        <mxCell id="rYe8Sak9IraCX6kGYXkc-3" value="CONFIG SERVER" style="rounded=1;whiteSpace=wrap;html=1;shadow=1;" vertex="1" parent="1">
          <mxGeometry x="550" y="570" width="120" height="40" as="geometry" />
        </mxCell>
        <mxCell id="rYe8Sak9IraCX6kGYXkc-5" value="" style="endArrow=classic;html=1;rounded=0;dashed=1;flowAnimation=1;" edge="1" parent="1">
          <mxGeometry width="50" height="50" relative="1" as="geometry">
            <mxPoint x="210" y="530" as="sourcePoint" />
            <mxPoint x="210" y="570" as="targetPoint" />
          </mxGeometry>
        </mxCell>
        <mxCell id="rYe8Sak9IraCX6kGYXkc-6" value="" style="endArrow=classic;html=1;rounded=0;dashed=1;flowAnimation=1;" edge="1" parent="1">
          <mxGeometry width="50" height="50" relative="1" as="geometry">
            <mxPoint x="610" y="570" as="sourcePoint" />
            <mxPoint x="610" y="530" as="targetPoint" />
          </mxGeometry>
        </mxCell>
        <mxCell id="rYe8Sak9IraCX6kGYXkc-7" value="" style="endArrow=classic;html=1;rounded=0;entryX=1;entryY=0.5;entryDx=0;entryDy=0;dashed=1;flowAnimation=1;" edge="1" parent="1" target="rYe8Sak9IraCX6kGYXkc-2">
          <mxGeometry width="50" height="50" relative="1" as="geometry">
            <mxPoint x="550" y="590" as="sourcePoint" />
            <mxPoint x="600" y="540" as="targetPoint" />
          </mxGeometry>
        </mxCell>
        <mxCell id="rYe8Sak9IraCX6kGYXkc-10" value="" style="endArrow=classic;startArrow=classic;html=1;rounded=0;dashed=1;fillColor=#1ba1e2;strokeColor=#006EAF;exitX=0.25;exitY=0;exitDx=0;exitDy=0;" edge="1" parent="1" source="rYe8Sak9IraCX6kGYXkc-11">
          <mxGeometry width="50" height="50" relative="1" as="geometry">
            <mxPoint x="30" y="460" as="sourcePoint" />
            <mxPoint x="25" y="310" as="targetPoint" />
          </mxGeometry>
        </mxCell>
        <mxCell id="rYe8Sak9IraCX6kGYXkc-11" value="AUTH" style="rounded=1;whiteSpace=wrap;html=1;dashed=1;" vertex="1" parent="1">
          <mxGeometry x="10" y="470" width="60" height="90" as="geometry" />
        </mxCell>
        <mxCell id="rYe8Sak9IraCX6kGYXkc-16" value="Actor" style="shape=umlActor;verticalLabelPosition=bottom;verticalAlign=top;html=1;outlineConnect=0;" vertex="1" parent="1">
          <mxGeometry x="-290" y="280" width="40" height="70" as="geometry" />
        </mxCell>
        <mxCell id="rYe8Sak9IraCX6kGYXkc-17" value="" style="endArrow=classic;html=1;rounded=0;dashed=1;flowAnimation=1;targetPerimeterSpacing=1;strokeWidth=2;" edge="1" parent="1">
          <mxGeometry width="50" height="50" relative="1" as="geometry">
            <mxPoint x="-250" y="320" as="sourcePoint" />
            <mxPoint x="-120" y="320" as="targetPoint" />
          </mxGeometry>
        </mxCell>
        <mxCell id="rYe8Sak9IraCX6kGYXkc-18" value="" style="endArrow=classic;html=1;rounded=0;flowAnimation=1;dashed=1;" edge="1" parent="1">
          <mxGeometry width="50" height="50" relative="1" as="geometry">
            <mxPoint x="200" y="290" as="sourcePoint" />
            <mxPoint x="200" y="220" as="targetPoint" />
          </mxGeometry>
        </mxCell>
        <mxCell id="rYe8Sak9IraCX6kGYXkc-19" value="" style="endArrow=classic;html=1;rounded=0;flowAnimation=1;dashed=1;" edge="1" parent="1">
          <mxGeometry width="50" height="50" relative="1" as="geometry">
            <mxPoint x="230" y="215" as="sourcePoint" />
            <mxPoint x="230" y="290" as="targetPoint" />
          </mxGeometry>
        </mxCell>
        <mxCell id="rYe8Sak9IraCX6kGYXkc-21" value="" style="endArrow=classic;html=1;rounded=0;dashed=1;flowAnimation=1;strokeWidth=2;" edge="1" parent="1">
          <mxGeometry width="50" height="50" relative="1" as="geometry">
            <mxPoint x="270" y="420" as="sourcePoint" />
            <mxPoint x="400" y="420" as="targetPoint" />
          </mxGeometry>
        </mxCell>
        <mxCell id="rYe8Sak9IraCX6kGYXkc-22" value="OPEN API" style="rounded=1;whiteSpace=wrap;html=1;shadow=1;" vertex="1" parent="1">
          <mxGeometry x="400" y="400" width="120" height="40" as="geometry" />
        </mxCell>
        <mxCell id="rYe8Sak9IraCX6kGYXkc-23" value="" style="endArrow=classic;html=1;rounded=0;dashed=1;flowAnimation=1;" edge="1" parent="1">
          <mxGeometry width="50" height="50" relative="1" as="geometry">
            <mxPoint x="189.6" y="400" as="sourcePoint" />
            <mxPoint x="190" y="330" as="targetPoint" />
          </mxGeometry>
        </mxCell>
        <mxCell id="rYe8Sak9IraCX6kGYXkc-24" value="" style="endArrow=classic;html=1;rounded=0;flowAnimation=1;dashed=1;" edge="1" parent="1">
          <mxGeometry width="50" height="50" relative="1" as="geometry">
            <mxPoint x="220" y="330" as="sourcePoint" />
            <mxPoint x="220" y="400" as="targetPoint" />
          </mxGeometry>
        </mxCell>
        <mxCell id="rYe8Sak9IraCX6kGYXkc-25" value="" style="image;sketch=0;aspect=fixed;html=1;points=[];align=center;fontSize=12;image=img/lib/mscae/Azure_Database_for_MySQL_servers.svg;" vertex="1" parent="1">
          <mxGeometry x="239.6" y="440" width="30.4" height="40" as="geometry" />
        </mxCell>
        <mxCell id="rYe8Sak9IraCX6kGYXkc-28" value="" style="endArrow=classic;html=1;rounded=0;dashed=1;flowAnimation=1;" edge="1" parent="1">
          <mxGeometry width="50" height="50" relative="1" as="geometry">
            <mxPoint x="455" y="400" as="sourcePoint" />
            <mxPoint x="490" y="330" as="targetPoint" />
            <Array as="points">
              <mxPoint x="455" y="330" />
            </Array>
          </mxGeometry>
        </mxCell>
        <mxCell id="rYe8Sak9IraCX6kGYXkc-29" value="PAYMENTS MS" style="rounded=1;whiteSpace=wrap;html=1;shadow=1;" vertex="1" parent="1">
          <mxGeometry x="490" y="310" width="120" height="40" as="geometry" />
        </mxCell>
        <mxCell id="rYe8Sak9IraCX6kGYXkc-30" value="" style="shape=cylinder3;whiteSpace=wrap;html=1;boundedLbl=1;backgroundOutline=1;size=15;rotation=90;" vertex="1" parent="1">
          <mxGeometry x="680" y="185" width="40" height="95" as="geometry" />
        </mxCell>
        <mxCell id="rYe8Sak9IraCX6kGYXkc-31" value="" style="endArrow=classic;html=1;rounded=0;flowAnimation=1;dashed=1;" edge="1" parent="1">
          <mxGeometry width="50" height="50" relative="1" as="geometry">
            <mxPoint x="610" y="329" as="sourcePoint" />
            <mxPoint x="710" y="252" as="targetPoint" />
            <Array as="points">
              <mxPoint x="710" y="280" />
            </Array>
          </mxGeometry>
        </mxCell>
        <mxCell id="rYe8Sak9IraCX6kGYXkc-32" value="NOTIFICATION MS" style="rounded=1;whiteSpace=wrap;html=1;shadow=1;" vertex="1" parent="1">
          <mxGeometry x="810" y="215" width="120" height="43" as="geometry" />
        </mxCell>
        <mxCell id="rYe8Sak9IraCX6kGYXkc-33" value="" style="endArrow=classic;html=1;rounded=0;entryX=0.5;entryY=0;entryDx=0;entryDy=0;entryPerimeter=0;flowAnimation=1;dashed=1;" edge="1" parent="1" target="rYe8Sak9IraCX6kGYXkc-30">
          <mxGeometry width="50" height="50" relative="1" as="geometry">
            <mxPoint x="810" y="233" as="sourcePoint" />
            <mxPoint x="860" y="280" as="targetPoint" />
          </mxGeometry>
        </mxCell>
        <mxCell id="rYe8Sak9IraCX6kGYXkc-35" value="FILE STAORAGE" style="rounded=1;whiteSpace=wrap;html=1;shadow=1;" vertex="1" parent="1">
          <mxGeometry x="400" y="215" width="120" height="40" as="geometry" />
        </mxCell>
        <mxCell id="rYe8Sak9IraCX6kGYXkc-36" value="" style="endArrow=classic;html=1;rounded=0;entryX=0;entryY=0.5;entryDx=0;entryDy=0;flowAnimation=1;dashed=1;" edge="1" parent="1" target="rYe8Sak9IraCX6kGYXkc-35">
          <mxGeometry width="50" height="50" relative="1" as="geometry">
            <mxPoint x="270" y="310" as="sourcePoint" />
            <mxPoint x="320" y="260" as="targetPoint" />
            <Array as="points">
              <mxPoint x="360" y="240" />
            </Array>
          </mxGeometry>
        </mxCell>
        <mxCell id="rYe8Sak9IraCX6kGYXkc-37" value="" style="endArrow=classic;html=1;rounded=0;entryX=0.5;entryY=1;entryDx=0;entryDy=0;entryPerimeter=0;exitX=1;exitY=0.5;exitDx=0;exitDy=0;exitPerimeter=0;flowAnimation=1;dashed=1;" edge="1" parent="1" source="rYe8Sak9IraCX6kGYXkc-35" target="rYe8Sak9IraCX6kGYXkc-30">
          <mxGeometry width="50" height="50" relative="1" as="geometry">
            <mxPoint x="510" y="235" as="sourcePoint" />
            <mxPoint x="650" y="235" as="targetPoint" />
          </mxGeometry>
        </mxCell>
        <mxCell id="rYe8Sak9IraCX6kGYXkc-38" value="" style="shape=image;verticalLabelPosition=bottom;labelBackgroundColor=default;verticalAlign=top;aspect=fixed;imageAspect=0;image=data:image/png,iVBORw0KGgoAAAANSUhEUgAAAQMAAADCCAMAAAB6zFdcAAABC1BMVEX///+MMiPhU0MAAAC5RDSIMSFeHxnysKnlVETCRzisPi+GHgDgSDTl1ND43NefOSrOTDyJKxvgTj6lZVjnfm+BgYFoaGixsbEvLy+oqKjFxcWQkJA3Nzfw8PDf39+JiYny8vJycnLR0dFISEigoKB3d3cdHR3MzMzj4+O/v7+GIg1UGxZaWlo+Pj4oKCjZ2dnxuK91KR7Fn5by6OWIJxVmIxvvoZjxq6PqiHzjnpXiWUnfQSxPT09gYGAfHx8PDw/AXU/Ho5vYrqf30MrbxcCnLhvka1y5iX6aTkC/OCX75+PjY1Pzw7zTtrCvdmmUQjLEe3GsXVGrXFDJV0eCDADrlYjneGigXE/Pin9vaWJNAAAK9ElEQVR4nO2de1viSBbGIcEVNbYShUAQEm4SbBRbbHVUZHra0e51+zKzts73/yRbpy5JJRWuxgWTev8ilaRS51enTl2Sp0ilpKSklkH2ye+riy7DYmWfnB5kNOV40eVYnOxP6YP0SiaraA8JpQA+kE5jBoqeSF/of8oBAcoASbtMGAXqAzwDRCFJvtA/yTECPIME+YLNE/AzSAiFvp9AkAGmYC+6kK8qO0hAZBBzX+Ai4TgGsY6OOxsCgXAGinK1u+jCvpJ2clMz0CUDyUAykAwkA8lAMpAMJAPJQDKQDOLHoP/H5/7osxEx6N/+YUde8qhkn5z+qel3Z5/t8PMRMLBv77+cbnxVlvTdVB9WSNaziq5r2t3Zf/4tXvFCBn1k/8bGaS69spbVlFX71S2aVfY9rBGtrBODgMPDRZDDCxj0v33/cQD241vWFFhrOv//WTeN7JMDvErGGFAOV5cXxxyHORlsfvuefmT2uwyAwjK1iE22TsgzILZo+sPu8Tty2RwMNj/tQP0HblmjV2lKSItbkDbZQqHAgHDQtN3Vd/aMDOzNk52NjYOQe1wGivZu0aa7Gs+Acrjc/RGCYASD7MNOOtT+N8wAc9ianoGyPcL+N84gOxODFckgUQzSa9mwexLEYOXDx3992FpTskEQCWEA9mO9f/+RcEgUgxXXfqb37/3+EHMGgv0ChzgzWBHrfxSHuDJY/4BMfD+egcthNIK3zACcfHt9C3nCWBAfP3wY4wNvnQHGACDWttJhLgHWTzA/Dgx4EhnOJSZXftwYuCTAJaas/HgyoCAyswGIIQMlm5nRCyQDyUAykAwkg7gywEMlJYNm0iszDRFiwYAYv72WWd/aSmeU7e1t9Gt6FG+aAVkhwbanmclkTZWjQs7ElcE2rveAif51ZYICsYjp3BnWUEIMCltbz8Z2DUW+X5AMJAPJQDKQDCQDyUAykAwkA8lAMpAMJAPJQDKQDCQDyUAySEkGIMlAMgBJBpIBSDKQDECSwUzf7k/FIBvb9874uwLhexOeQZZ8yEy/U4glA/dzE/5jDGBAv08hyZM/yXnbDDgWCvv0JjPtJzgxY8D7RWbWz9JixkBJ/PeJkoFkIBlIBpKBT7quZU5zY/a8iDcDXdeVh6eLs/Pffv71Iz0LiDgwQJWPzN/9dXa+yoRA/EQgpiPxxhlA5V9C5a+G6fyfn39P4RJvmsHl3e4o8zkQqG18SY8LlG+YQfb3n7+tHk8gADpePb/4bzzXD7JbudP0X4jDeJ1dPF3qekzXUPBaWi6X+/H3SA5nF3eXEDJivJZGr8ohfxA5oPpXiP1KAhgQDjmOg1f/TElgQP0hhzhc3Cl++5PEgHDICPYnjUHi3i8knYGuaTMx4DdQjQMDXbvSns4+P8+wl+jT7f3z4wgOy8ngcTQDVP/K0zku66x7ytq3J8+5kB1FPQZXy8PAvqdb3wYYoPpXdlfdbbfn2VsYcdg5ffRzYAw07cwOL9BC1L8/OPUzgF1kL4599TT3HtOwwzDnD4SBrv8as7f7QtT//nhKGcDu0krAftBL9hq3EYccDRDAQLv6tTx7K3sCX1jPwq7Sv8J2W49gz/n+t+9fDg5OV9a05fMBpv79n6PsB0Xy3wP9b/c/vi6lDzDZ405G9h8UY5+y3ErG/3CMl2QgGYAkA8kAJBlIBiDJQDIASQaSAUgykAxA3x/D/mwpjIF+9WvRhX0tbT5viAukIgNd212etdLodfsl6AsCA/3qKc4EQEFfCDCIuQ8w3T7zvuBjoF8lggCI9wWOQUJ8gMnzBZdBgnyAifkCZZAwH2AiFDCDBPoAE1BADBLqA0y3zxtf3w4BxzTN9ivke/vPywiYVuH6umAZleAJp2N0qi/KWlBXRRIetGA5NdXVocmfadLUcoRFruAcm9FlGIVKqk8D94Rz5KWaYzKYTYRrMbL8opBB6r9QaxUa+GeXnnDgYL9Wrh1GCgHllkf5vUZEmFfYNWsOPSjDkUUOgEge/8KY7Gie10NZOXse6WUQ1EnZO2y75proR4umdvwXvUQtVR2myssVFVGb3+OPLWZugS8ncuDDaJ6HnasaHdMI5LgOzyVAWLRV3l9Rz7FvR/E8g4QC1BiOvMS2aSLalWahO8j3SJLZ6nYLJf6RVaM2QGkWC0wVMyAWYSpGodsdWF7Acci5njVAyXWxTGByzZdyQ6u8algdNxExGEbivNeqepMifZGX+z6EXIv2QA149g09MNgl5qHXR5F+taMGRBy1UmDHQ3Yz4r6fghiEtdcLlslGzz+yfSlhRW8EWsy8cmjIBS+7dlOLyDcGri0NEpSIaG2WfdZixzVDGbT5FFq5iMGhwyULELoqPyQYobbXW7xMYAsedkJtOSwVMUC1VGx2Oi0oI1yU73Sa+yojjzsmy6w69RKuTnDoat6iKjebQ+ozPVzTRr1qQqynhqG7i+iCrmGS/IWxSR2jsQQ2QQTR9I2uy3Z4qkW3culoZQ+3O3uPEVM5YjU1EMFoGs5t6GXr3LBmg/MckkDQC3UE6mY3NSOUQ7VuNELvm0fgvyXyE1Xy0KbJRc4X8diUhp4OvbyjcpEhpZKYwQlCSQF+QJhh/TkZ48EPg7kOOxAH6mxSAAURJk1VcqJrC7fNI66/tTi7ilwZy1w1Q9SALrS5R4whOvL1KdSAQ5aRC5akA0Iw2+3iHB6Tp16XCxgD/yCWNBW14eum5lWFq++q6oVZKDpfcLfHUN1hBPf4AelaXIFzEcsDHX2FuofheR/K6Ib6TFBOqSFEUyLjMG9d4/bkhN04m8A+F3GDNXbMwB2BlbxknoGrqnEEXZ0n3MLJHR2eX8odhRj8Y8GNQhkg2e0ycwehF7RrfFCaXxCl6lS9vOeURc5XS/yTfAzqRrN2uI9LyDHA8522dy8ft2oklBu+5OJoBiDbrImegJVXp+hBJ6mnCrKFYpVUbojuMeAdlWdgFzlHLwdqyvIYeOtAExik2DBLrPKh+vJZTktkUBKKFcrAKbp3FDpdngGgcftYKxoGJHaL85lyoKnNIRs47nkCu46EYoUxIEtPjVqzDRbyDAo+/2yObgtjGFS7h8HeshLaGPxd9FwygnDBsHqwWGEMwNJrt4L3PAZlf/TyBz/sJDepiQzEKZM7lqu0eZvNlzNoBBsZWFAIFiuEQUX1jQhUtyeFa7nxAA44POUhibWT2gLURUpIGgRndsHDOeSowTUIPJCrpCYy8JvmuAzwrMk3fh36HmHSWDGJgdj6TZJS9XtINzRSziJL9CQYeDRTExn4Z2w1Vm24m/Evc+Z9z2DTjUkM6l50JqrcUGv3eKvrQiXOrCOxZzFoNzeBgcO3BTKyh4IORagO7xktFi8n9gu4Lxy4xpo3rP7hYWxu4gwF5LPKVEP6JFqTk2IiRJIuLmKPLjOkCNNavWOUXPXoewJ4G2LXD1UWOyf3jQ2c6U251OmU8KSbRVrIpAhxu4JzDs5XZ1QhLKDQodckBmRhpDHogm/ukR6Q9Jc+lWiO6JoGnn4Oq1MysBuBrIq0CDYelx5dk/MTxxXjVWGt2CfcpB2oUreTDx0jcetmZZxVeRSDlDF0j1mR/QyOQke8xj6fEzdcKISmzqV2K58vicnlfL5lpizunNnKt2x2gG4ivuNYuGKvmxVyk5Wy0Tm/WmRoYDfxvKdouWajZ7e8SGSFFgTNlyw6GC34FxDqZHjbaC7DywD7la713Rd+Y2Xe/KSkpKSkpKSkpKSkpKSkOP0P9sZ/6TWYKN8AAAAASUVORK5CYII=;" vertex="1" parent="1">
          <mxGeometry x="490" y="250" width="66.74" height="50" as="geometry" />
        </mxCell>
        <mxCell id="rYe8Sak9IraCX6kGYXkc-39" value="" style="shape=image;verticalLabelPosition=bottom;labelBackgroundColor=default;verticalAlign=top;aspect=fixed;imageAspect=0;image=data:image/png,iVBORw0KGgoAAAANSUhEUgAAAT4AAACfCAMAAABX0UX9AAAAkFBMVEX///8jHyAAAAAeGhvPz88KAAA9OzsgGx0hHR2+vb0PBQmZmJivr68PCAoYEhNxcHHg4ODp6en5+fkaFRYVDxDY2Njv7++Qj4/j4+MyLzD19fXNzMy8u7uhoKDHxsapqKiJiIhEQkIpJSZVU1N6eXldW1w5NTVtbGyMi4uVlJQvKyxmZGRbWVmBgIBNS0uzs7MV0p48AAAOmElEQVR4nO1daXuyOhCVAIJYcAF36972Vav+/393RclkEhIQ13rJ+dKnghAPyWR2KhUNDQ0NDQ0NDQ0NDY0XomtNxhOr++phvCWs3YacYTRqrx7Mu+GwIZFpnOEGJPh89YDeCc0qodyd4RBj9OpBvQ2mAnkxTPLv1cN6E/wjKfJikO2rB/YWULBnGLbmLx8HFXvH+afXbx5aavaO/On9IwfLkLHlRjaxI7SNmItXD++PY4Imn23uDuPDbENcNv20/peJOcw1k0yTz2omzEg3eOno/jqaMPlMowWftucBTD9tv2Wg7tNpRjhPwYZOyuDnVUN7B8DaJQfu8w6dlW74opG9A9qUJXMjHPmi4o/0XzKytwCIPn8tHDnYlL7JS0b2FrCIiqQ+PWJ/vGRkb4ER0NcRjnTpEU9rfkow+izhCKNvKv2mRgUtXnssHIGt1z5Iv6lRQf6CaCUc+fTovNReAzWCxLx17TZ/YAAKoQ68qQHqnb/jPp+CQjh40cjeAlOq3vHGLUg+I5q9amjvgCHzVxGm4I2IA5+KGg2g3W6rDpUHjYjx93WmqtlgDj9zLv2WtV4uCCFmdTcuN4d95C4Nib9tbB0SsI9k+267bhI/jBl2zYiQn+bzR/13MPMYWYYbBqGL/g++0l+Y2h4+xQjIz/D5w/4z2KRD5MBmWmsZ7okrnhaV2a3QT/MBSzdFS9MLJOe5pP6Kkf8NjFT8kZS525Rkc5xPFR1eJYIlJcUhKVdV11Yu9PTJ5UF/YKf48APRCVOpzEMJcZS/Mm/Aa+JzKzgiq7RC94kTEuJN2kH/m9UXDPvPoDvzCdWgA0JWkggHslAMk0TLxnZDmNItBptKh8nuTEbQkJsSPZ9RNT/vyc0VM+9S0aayIfEwq8xcG5Y32mc7LCWmzNpfjMR5mnLcn8GyYbjElxawWvaIejZ9OyrnQj5rssZofcYg/y6y6WP+5xZ/YA8Hyqy75NAHCQnhr3BkDBH11+697Va/lX/W45BJX0sZ+FUfYRg2Ke45YED3sJrHBT3J5g83e6orKJM+8N+nU9Yg06OnvPSIUNxxvBTNLTnX9FDVfUFvJoZfH4oL6UvpJ0CfOpOcBpQd947jTdAD/y6lr2qqnvQjkan3qZNewBrx1YuX0ufen74GM4ZeSp+V5EpGs4nE6ugqI+oTJbHo2g+jDxvir6OvdpQf1CiLCFmmN1HqIHBt4UCDrh2FxhPjYfR1sRvjVfRNTcL7okJi94QpuKVneLxrmRWGEHXU7WH0MUPctQlJ6iieS9/EkPibXU/wgH5ATIlXj/eU1nCvvsXD6HPoyEPjA7xET6WvQbDfDhFIlkhv+mT+FjdC/H3B53ZGKtuj6IMNjXM3PpG+7jfjRUQAPI0GnKsUnAajbxRmz1BSH0UfGNycuvA8+lp+hgPeMM+7QXcrRkM8svqYjNff6HN/lnGbR9FHc3Qcztn4NPpa6uBPMs+s2JMviU7G5W8+/nLW5HsYfTQNMeTi+c+ir21ks3d8rP5hkY4jSZAdansUfbSsJ2jgT59F3zKSc4HgemxjMdWne9m+0ivo63ysd41Vb6pM8YpxL/patc/ZajWrT4okg04JR0Fcj0oIiRQz0iXznqr4N5JnYgEU9B0+KD75cde2sWyIosi3idc4M9ia0pNP//aP/x5+EsltLk+XSpR9OX1N+P6UN9v7vcHRZojiuxEy/+CHNlX6iDiN/bhNOLux1eyMjxeTEej7H0KsEs29DJUvg746sRPwWR7TgKBMJTciy9bpGsm5Z69NLf4X9j3zdGSQQV/XpncjC6zfN78IluEmOSfDL+jdlF6bFV6L9oDdy9qnWArJ7nTPMUnv1C5pqG6RSR9rA0Cwq6szSCmiYSxZ4RpOQl9qIFlGW3tBOTIXeJPbpX6QS76OP/XbkTwCDK4MX2hbMOXtEJfs6Rxu7YW56fp+vltNRt+IsYe9EJ/SuX+cnrfRBzW2jo/kRGvhpa5yFEWbYT59s6wYdwcPzllggmpVJB4DYv+7IMFUQl8TnpCHY08rhXglH51b6NuyyluUAdBRpDwF3/n02ajmPq11jNDoxOCQNYv9uad9ZntZdm6avi4IHB8HT1TsxU/Yv54+dllsnnSUuXleb5+ze6MuBpFMdtWZuiexZoed2nhsXRyaSdHX3lCRE+BNW7E1nckxBPrCkGXZuMd/wkhFX52xh5xqXVtu7J8oWdAvKOib5VmrEJlMB9cKI0UfiKJwgKYvJzJM/xyw8IUFltA32i+Xyyot6xksYyRSQKTvg7GHpdAebxrB+Wa2uJGo6KvCqBQhHrYxut71xJ0h0geiyDTwozOQik4GdavVbrcm6wUvoRL6Tvi8RG1GexReRljr9Ulj3By2u52PL8LbBgr62uzLqoJxdMat8UWBvh34mSKsLqOl6w+Qaltb4J+E6bvE6mDtLjjtEhFgEuQbbjU4AaKgj13UUaVGgX/59uwfnj4QRQ7/XCKWhCRI4x/0kwrS1/XplCYzfNIaVBbT5GfHBO8oCvqgFlWd2lO/yBN6ETj6DtJtkBNRM/ECK7aRFaOPqcvCI4F8UNMVRX8TPSwFfWzfT/UxoIB+BlkhyMuA6UOiiC+6AVEuKydhzaKK0Qd7lKfMbEpLJqSVKOgbM/pUVQXsDjdX5CP6mLosmJNggrsyTWAIllwh+iCWEC3560F80Jb9NmbP/q3ZtxiCxSLWPcADlT8s1rHncvomsEcFYuo1NRpcU3Yz5k35U7LP2EB2fqqUBhRRuRoKyQyX02cu6fYQbgTjqJ/9rNj0y995VV3mvu6/8zLbgezEc6h0CxVNK6kicDl9cDPTFJ8IizHJLSfWJOMeet+trYQstJedf6+Y6lGpmIlwU031qVeYvgSukeKIxphU1fLtHPqw1SHPjGKiz/Xll7gcl9AHzScUuR50QhSnzwhSPnianaCa6pWFm01frs3LSi1DiSJRDJLFK7rIQLappnqzOH30b5iKJdBM7UiVVEdFiYo+5JG6wuPStcaHw+TiNQ35fYOlKkV6mCONrqDPBLXFngkXo/QpUzp/c+ireJn+Przcsvx9h2L+vgWoBOY3fwqTNgoDu/jiJZMf2ECFzY+uvSi1gyXYFPI2p7sIIV+Ys8DXGH+TCA5KUrFkQGozODo8YeTU4lVt81TaF1KbqcErquLUVRMK2jQgb+sQYh38JBZiHQ5Z0inRn4uxDu+CjHpstH1BPiA/su/kuqr1RO2EQvSBiAp4nmBfFLMVE2SkclMoI22juTLSdpBG2nLriTB9QzrNhFp/So+4qinga4Vs3h1s6JyazuiRN5laU6mppk+M85q7g9W0xrONOs5bT/F6gpcTJec9LmCQ8xmBkAInT64Gm66gw4qV8+DLgqRV2FwmGObqTAVploH9+CwDNiO4+C6wKo0NAA0F6QPzzDGxkGZdW2XqA2MmK9Hj95IcFyYFM3Jc/EI5LmxGYBXZz3rizBNd1NsM34ywigwGvWzzGKLq0Qz6mC9RBcc/GPfPsAKD243QjICiQ9dOqX4oiFSUPuYqxD4e1v9H0sZiyTLyMtOMrs7vc2/L74MZEaCFyigyXYG/JloDhekbMg8jUimZ/zXVWX6LUg+ys7T6XnZ26WlfaqWyS207zi6tV6/OLgXPMh47+0Wmx436gLXQwvQx9wp2EGCPMvft7hwnbuQkuV2T2+zAKrAGV+Y2d9mMYBsiXqFkD9pzjdejitNXadDf6KPzUF+QyIYEub6QM5SbI9hQJHooM+ud4A6Z9aCHmAYaCnqUIfF/Z+v1bGmLenpx+irMU8HMKxwQOur+1VVv/e9nI4R5L0ixVNR1CDVWH6xT4l3qOsAcxZs2lyzshpHvR2xB30Afm9fIfl/zeu/xZn5Ab+JcoPcBpo6wOxwf/frRVUUy31VTUWMSD4n6aq6hj1EVoqDHr1JuuYNqjr+PR+2Hq2n7ldS0QZdY4cDqypo2SzYjJqqkJ3Mg5PedcHluM0g67Luaq/gjk3mex0VEJxFvUW9UqKISrPKiFZU9Kg6wlTuSS2KTtDo30YdiZ8ijs5SbUWSWn9+nYuh59bxVkAfId9WSNNQygqO8vW32sdwGx0c74kzytNw4yaE4fU+oJjc5+lpEKqDrQkOt49SLdQC4BqYvUdGifPoqW2gyhfe4TlXwIbm+HX/tW3qNLDy0l4F3gs2nuk2Tjz2Pc2gPexHL6gv9pOUTXAMJ33XyGe8yG9jJp5wTuB3Y9GbcQGt74lHB7kTU/buQXiMLD+ykURijf/ukncNyff/uG4Jsb0234flmi9X1hUgX9nERPRSsj8udG1d0+/3+01q+t1v9G9vA6C5CN0H3sLoJ13VQg10ykEWLS4Sc/n1Mm0BRlw5YiWXv38e6R9akxuuaWTi0e2R/hdrbl7l7pNi7VLILDAkuGwiWjS/duzRBj0Scoi/tnMsF5sTOueksnNJA1rc5igr2bS7t2wTlXcPddOxsKNZH6aVbqGd9X9mzvrQvwyv0xoR+JH9jQmnZq2REymXv61jq93Vg7IS3xQSYnUCSbTIl4ttiGuV9Wwz/rqJw2/hZcMqcZF6d31UUKy2ndxU1yuwoaKBsDvqmLGxKyN+DYK1/Nx4hxrzkb8pSvaeNmbf6PW0ZULwlkAXg9VsCs8DeUTnjPofSWv2OyizoN6TeAv1+3pug3w59E/S7yW8Co0/UT7qPCN7+32ApUwfUKS0aANDvUv0MoGipxO6AXEDqQCrO8wup26X1Il+AuSTDMwasajd80cjeAqy7B5d60abVrKV/e1g2mHFronYJbWi98+QXrrwdIL/HMCG0UQtZwyO9djOBamsMO9wdxofZBrnj09EiDQ5LFLt14kI1XI+q7JCjkYAryReRUWqgccZBzR9RJytrUKxV/NmqDjsaGDNFbYhm7zJMJbkXJlFXaWjwaFYFAh3b0F7mAjhsWCN6NyCB9vIVhLXbJIUoRkNbatega03GE0uH1jQ0NDQ0NDQ0NDQ0NF6D/wAnEeAyKGSJnwAAAABJRU5ErkJggg==;" vertex="1" parent="1">
          <mxGeometry x="660" y="160" width="98" height="49" as="geometry" />
        </mxCell>
        <mxCell id="rYe8Sak9IraCX6kGYXkc-40" value="" style="shape=image;verticalLabelPosition=bottom;labelBackgroundColor=default;verticalAlign=top;aspect=fixed;imageAspect=0;image=data:image/png,iVBORw0KGgoAAAANSUhEUgAAAUYAAACbCAMAAAAp3sKHAAAAflBMVEX///9ncuVdaeRjb+Xq6/vw8fxgbORcaOTP0vZlcOWKkuphbeTBxfOPl+vg4vnd3/jW2Peus/CnrO+do+2Wnezy8/3FyfTk5vpyfOf4+f6RmOuGjup1f+fIzPV8heiyt/Fsd+a8wPN7hOiiqO5UYeOqr++9wfKHj+qwtfBVYuP21jr4AAAJwklEQVR4nO2d6ZqiOhBAJUAigorihqCiDnb3+7/gZXGBSljEsPTtOt/8aSWSHAKkkoIZjRAEQRAEQRAEQRAEQRAEQRAEQRAEQRAEQVpCt0+XQ9+V+NW489tqpxLKxn3X5LfibjfLI2VUNRRFIaixCePwK6DEjA0moMYmaFEnVLKgxiboeYmosRmoUQqoMUs0XJnYTQqixgfxcEVh9Ac1NkUfLzwlGq7ELhhqbML2tNox8hquoMZGTJlqZNuPGhuxAgKkaDTUf39sakK2RkOlhOxW1lp2RYeNTI2RQbrbn+w/pjBGkkZqEka8cKy5siv4O4AaSTONvrPZyq7ab4LT+MdusZJAjVJAjVJAjbXQ7fNy6l18/3L09tfTYQtGIx/cYrSxddvM9UbVmp2duFLH1aL+8Ghtn65fx6gl3mpx0Brtthnb8GIQaqqqEaOqZjQ0Vo7XcWZUAjUax8kL75Zs402yeIm4dbiLfiz6ZzrxX1+TPF56NDRQdJZ8qoe7uFZJlShRJnVOANfylHuhpJTpLzoyafmMGgqHEQ3xJs8oA2qMwpAXZJFsQ9UsLI7zrOdPq9NRPG5U89wXWDVQ9Bx9tnZAtQy221Q0RbsSAo83ZZN5S+YyHHZE4PCOSug96OU0ZqGpxvwmNByNruz1U4nGgqkJzczvdjUabRTK7cdgXmnXCk2+TNKKVcuj/fWEFUtM2mmlG+7f1qgeRyHL/PmGRiUYOUwRYbBbYVvmAvF3TLNRtFCXrWIW7fnRzrvG6dsalWBGMn+9pdH4KjRClgVtOZecVVGxc3sWbdE1Eey+ucY8b2lUSn6KrYRtuYq776tY2JZFrdpiXxpLqyTqj1dSVYyd2rHo7krbfa/z8DQqjD9Bw4q+mBRrJ2K4Fl5/su0coEaFzUBTNjUsRjtrFgKUs6236yFqNHb5pmh1OkRUBa8FjaVDmFc7h6hRIfn7xaVWU6JebEm3yLWooMKD1Kiw7Pl5rry9PDCla6y574FqNDOjnrVob1EUD8PCuKLfsjVO+MFOFH7GEJpZku5Vo6FSaop/lb6iwgV3ZTTZ/mbbmxXhvgkkR4WuoGaT23y7ndmH79VFIfcxZaHG3NREWKoxnmsx3tdIzcsqPIUTYYxHn1dHl7tVEuchK4SnHJF8ddS4navZYZVuh+m8T5FGcljrL9xijSojl+lqf6TeexqjY3PvcOuFMMx7VPUMLbNMCsEYNDMK9KViQ42UG+RrJ5+ohRoFY1mBRpVOH5MCsZT6GqmXmabdBvxPP1d4feCY5BIxDqA/Mrmzj2Ouu8MhbYw9/feRRurnf7V+TL3PlVsHXH9MpoEjZrC/5UvCivO95SPgUeIjg5T5WFibehopaFJ9jQysZs/462OQfhOCbxgIVcDVS/JZzfXGx9EtoIlGdQK3qK8RTlifuPEZTU3v8v00uZPluICOLDXlhdNYMSPXRCPh5vybaxwFXH2Ty43ORJ9mOeW7a7N0jyIEETWbluSFNNLINam2Rr6xXLhgXuOPYXegXBvs/BZyL46uYDCWua1y9K5R52qbXOWWsCR3zmp5jap41rcpX6JRnkqUULyM1rtGQdgVf+rBlQuunAtSU+XeY4piakr8UHBy96/xxg2z1/HUM5AbLCFX2MLP3WUQBfQpUWi9u8Fzo3+N3NU8HqJxp7picsBicrNT4YArZ5Ioy/xwv3+NI6gx3qbmhG0WOCT9FD4yyELJNTsbMgCNO7hNFPXNa03h52iWJ1zMrGLGkSqZcd8ANMK7SayRH/5WIj0XDk5/cGSWhAegcQrnICxBTFsNkf4MybhgTvQJfY4OBqARLh4NRuNI21Wd2I/FtK41Cn5+uBrjiLN8GYTcz+sBaJwIro1D0TjSHFY6aLjnGgxA41EwPzuEW8yjbWEgWER7YATJRtz1vXuNnA+70YBH7hRPFvfg/RSmRaXTXdwZ1blGbukqjmKaDL/bzL3VTz4RXyXTlI3+NXKrR/E8Nx8MElbBP/E0vzRmV0O4BJdMy/ev8Rt2PDqKpybAh8Z4XkXrjyu6lmgAlDSpf43wDmP4yaewXh2ky9dAMH+WrKz3rnELO2O6BOiAkrTF5OR3mHM37aS+vWtccud0ko9jgcOufskW0pAN7I/JPYbTKMjiaFPjmk8xSTbhZyG7fC4rOhsKl3agxmTaHWpMF5TyyNQIQ409N4xQ0wVpLlFA7lpLFQ5TTuIkXm65WaRRCaoLStQIz93o4F7u7eB+stO3gETXZmqsBPc17vRJLjecRsGytkSNxi53iAUx3yOljP+KFoYp7plLBviU5BansmABR6Pw3pfmU8BgMJ+4Jc4o+0CjYmQLnwQh32MtwOXyAIoe3ZhfGePyOD7lYYuyXfb9D7rDhVfJArngmUGySo+ANnbSJFaZGqOvLudtfHh06yIYzL6y6LlbeFTUt8AYWx9ffWYqRju9Ma2RSYh52S9P54UjigiTxQs+pTVe1Vb9o28QwsTZtp9pVAxKqLJTiDC0el1TYPpJUpRQ7/sw32rbmT22wklA0hfBtqkx3bFqUkpVUY1pfGQLZqQMIy5RkLT8ocZyXsukK2Fhld6ja0Jesy6taywmjRZEx/xJ9xpp5oE3vf4sT48a7y2FSa25RnWukWWvfXzSXhH9aUxnAMofAOlcI8nfi2EKYyH9aXysjhcnq3SvEabM6nWL96aRPmMr0b36sVHHGn9g3Fy54n6nL42G/7oIFSerdKyR8eFevUdY+9KompmYrHj5qFuNTPTEWj2P/Wik+cjWKqpqpxqFFkcj26jIAIlpQWP1aItNQEglim1jWtBYtFBpCB7tv/+2Vz3uIdKfqD4rJYvTSUMU/uVBB3Hr5GukZ194mGlQstZyC8q7BlUd+c/3u9YXK3znShQuh6Ks1O1R9N4eJn708gONbD5aMu4wm2xZuqznfhf3DZMFizZekhCxtibxC73gkptJzCOcInly2JFcgWhrdZ8OQKLwNccPd/7pcJP7m5aFGWXbKc3+tyjRkXWqFwg2nkoEDaKB0+oLjdzZzTkqSQAfQaJw3jg6m9Lq2o4fP3Sdbq0encOj284Ac74/z8WbFCTmaSePPvYU7Df1krb1w/XZIBJXUTk6t07eBOvqs/Hmdj7frINd6+W9uh1tXnvraorzG9fzQ7Snjf3eQpWr2QfrfD5bm/Fc/ztvI66VJopUgRqlgBqlgBqlgBqlgBqlgBqlgBqlgBqlgBqlgBqlgBqlgBqlgBqlkNOomoTRYTyX8ct4aIxzBAPvOu42Df5/Q6xRpYxdHGv2d2ZZpaMxM5iebDT4GetO/5chBEEQBEEQBEEQBEEQBEEQBEEQBEEQBEH+n/wH89iebEan+dkAAAAASUVORK5CYII=;" vertex="1" parent="1">
          <mxGeometry x="570" y="342.5" width="73.61" height="35" as="geometry" />
        </mxCell>
        <mxCell id="rYe8Sak9IraCX6kGYXkc-41" value="" style="shape=image;verticalLabelPosition=bottom;labelBackgroundColor=default;verticalAlign=top;aspect=fixed;imageAspect=0;image=data:image/png,iVBORw0KGgoAAAANSUhEUgAAAXIAAACICAMAAADNhJDwAAABGlBMVEX///85tUrY49LtHCQ1tEf7/Pvl9Obi6t1XwWb1+PMss0Dv+fAws0IztEUlsTu4473O7dOT1p2848CdTUTc8N7J687B5cZsxHao3a/o7uTV79m958Ov4bV6yYON05b4/fmh26nsAABDuFNbwmntDhn6xMbe59lAt1BmxXNPvF2Fz47/+PnuMzmbSD/h9ORyyH396uua2KLINjTuJi37zc8XsDL4uLrzfIDxVFj3q632k5fwRkz2m5783N3sABHvPUPnwbjzcnbmcGrbybrnXVnY3Mvmtq7zaG3NpaHdxMKVOS2nXlbt3t20eXLDlpH07OvboZ/m09Ksa2O4OzarRT/WLC7ihn2yh3u4lojzeXzLkYTKcmrKTEjTICOzJU0qAAAOT0lEQVR4nO2daXfbthKGyQiyZZLQ4miPZMmUYi12LLt2VsdO17htktst7V3z///GJSVuMwAILjLdNni/5ByLBMGHw8FgMEQ07V5VLu/19sr324fPS+XdB46O9u67H5+R1sQV8wK198BT77578tmo5yPfVe68ICnkhUshL1wKeeFSyAuXQl64FPLtqexM5MtyKeTbUnmvd/QglRTyfNrbTcdbIc+rnpywQr5VZSGukOfRnpyvQr5VlVOOmwp5bmVyKwp5DpXTBysKeT6VsxFXyLMr2+CpkOeQQl64FPLC9bdAvtNvPdp/1G41zTu6gLmDJC9wYE4Z+b9A5EdHuz2Bdo/4yEe4aSDTNEcJuxQvPsyy2ex27Gq1aqzl/GuvxnUzYcUH7oL4gR14F/BVPZA2PkGnPN33f4kiP+rF9bUMkl8B8vpTQyhLtyerxn59h9NcLeY8Vk8HnCZG9fOKYVCiR0SoUZ2tuq0E9j5CVKpL4ZvbsHQdXoV3S1G1KDxDr/KQ92S+orx3xEFe1WNECLUMe95oMW3XjLjzsAwO8kdD2yC8gx3ss855XXI3WmsGzyaLvuhQjFy3JGY+GmLkBgd5kmKgMDuQELmHgM7mNdRUXuSnK51ygW/kXvKRwKd593KAqVhd0bEMcmI3Y0G1Z7hvHOTJyq8C5mmQrxFU531g6fmQjwYzTIFzyUUtxr/0F5gKqYgOZ5DrtBGHyVwyJ7DIk0YgzPEJkTudtMdRq8uHvBFn4YGI0WmLLL08Zp9ZiAWJRU4qcWbeZ3vHIk9c1tnLitzx68tIO7mQnyc9mc5agvswGSN3jp4IDmaR68Z5jJHOsc/iID+SokYnZEDuXHYY2lwe5F32jgSic1FoMeD1uyoYQDnIyexUyKjPaZtBnryQ1vPmmZA7HjBgngN53U7iVdYiwhGRY+TOALrkH8xBrhvioGXFMQkGeYpy8d0cyIne9pvJjnw0l46cwfUWogGR321S4ZsuD7luCNue8Y7GyFNM33s5kOt04Zt5duTt5Gca56K7YOLmjQRvBRe56JVgY/J1V1Iiv3x2th3kuuEHV9mRT/AdEcv9CzUsJurTRfGKyDcJfD8XOVnwgxZ+2ymRHz8/fPHyOjVyWmVnh8Q2cyJv4t+sxcGgtr9fGy8nxACPQ2zk56IBmLR5h3OR63TMO3bExuTrvqRDflkqTacvXh0nQT44bQaqjydV5t4GPORkUWvGKvSbXfQY6bDp2fJopz/oVMOki8gMNW2HeVN8WUPei8FHzm+/zx9p0iE/vpqWXOgnr87kyFEcXO+gm6NLPnJhfgMLzdPpHDIyB3Obbg6xhKFzzCtm8AZQPnL+W8SJydMjf31Y2uim9Oo6JXJthKYtdHLKuevkyEcoAjPYAa/fmLiWLm5zJDRywaAoQE5mrOdvChxtKuTXF6VAN29efdlMhVwrD0F/ib05IityE702xiPOQae1hUGoIKLQtBbo8wzEdGTGif0EyMNgIBTfk6dDfvzVtBTR9OTrb5ppkGtNOILTzbWzIt+ZS63cldkVTiU1DTw1OoRBHeXkiUXIdYLNvCWapqVB/vqmBDW9+fbL71IgL5+DDnuMtoUc+/JAJm9VYy2YdDKaTdAV2mEbFCLHCcURkxHOgPzxRYnRdPr122PvdzlyrQ0OsM7Xt7Qtx6LrB7FpcY4AFjo39+bRZ0BmbJwotnKUUOwLcxHJkR+/mbLIHegXt882ByRAXgf5DKuRCzkztyP6UJxg4ul0Eu2O+9J1QV8s9hkKkevWGHRO5MlTID++xW4lgF568di19ATI+xWA/CAXchwk6m6GtnGaImMxoPjCcLWC2MwjhMijlgxjc+CiiJ0F+fFzro170A+vHp8lQd7cKvIB++oSy5jXklZUmGAwoO4a82gJJ61jfA5AboHFDRCbg+DMBq2KkUP2r8XANwPp7XUSK4eOJZ8v104Z4mt0hj3s1pNQb8F3fx1j1uATtLFnAcir/ahnIiS8KMhFGA3gr4TIv/8heqVn8cSdMP32LAHyFgh8uRGLPpt3xILjmWB6R6i1mB9wUyRAK+hX1nTRElEVx/oQebMOzDzMm0fNmtjNWhLkP/z47n2EuMiPB1Z+dZ3EscDRyajxkLtlACIZsDqgL5ytuxUcZNgy4xw7nB36bgE6a2ZBDiE3V4Ct7/pBmOBMxJIgf//u4ZMPfvSnPTuRGfn0cZLh00Rm2eYijxFFBRni+MElYFUr4744boQxheFNZU7hXeAVU4QcOiLqPbZRg8ImEiB//+uThw+f/MOzkZcnMUPnhvhLLQnyLpzwe147B3JzFb8sRBy/Llpl3gEuhHb8v8OsC57hYOTAishkE7SAWbbbshz5Tx8c4i7ztZ2/LsmIl1zicuR1WP9AO2Ze5M4MVLIUR6zZip+4halfQ7AuiGc4GLlWA8HIeG2lSzjGJkD+07s1cYf5h/fa2XOpH7/YzIUkyM2BDoM634DyIHenoLIVZ4vWOC4dpgsia0DQ+nERB4N8tACxudvMTvQYOse3yEH+/oNH3GH+7udbqVN5I599rpcMGDatLSDXzIYuK6wgRpf16Cj3MA77igbQOYg3GeRaN3rb60EYGLnRkiLXfvk1IP7w4W9Sp3Lz4lLjI58PA63mC8qsUy60bSDXRvVJVWLpRB9jOx+BuQqxI6Wibbgsb4C3lUUOzFyvmjC7QoemFPn3T0LiH3+XOfHpxR+7vgVh5CDY49SJ+fhyInchdWzeFSJdYYpHUc5wGHkkKF0G40QWuTZAU1CQh9hkxuKQf/MhAvwLKfDSt2+bWYsq5hmKKgTInQh93JkZMQ6GGGhOC1dLYLtj2FA1mmjhID+dgKClVgHhihmDfOQA/+e7JyHwTzLghy9+/i5z6VAY8G4DuWOb9e7EEFMPg8DN0TBcnQFfvwNPtaJxIgc5ekQgheWtcjDIyz85weDxL//6NQL8d05yHPCe3ly5wLMijywAY+TUEsoQI3c5nnbnhmUJXAxIAIxhkhYt1MEZG5lEFnx4yHcqIqfmj1eslR+///7Dwx8/fnzi6uPH32QufHpTuvr3pbaTvXTIOAidJ0JuL8fn5+NAXV8DR11pPnzUPgjW9YEAVhPNd9AiWh32KFq4xUMuLv+t1kTIXerXb//z3/998enTJ4l5O7ynV6+eueVD2au1ooW3krlHepmt7or1MHQeeVwoX7jYh6qhU1dhnMhFbgruPCiEfCTy5d998+XbP27fTA8Pb26mUyY6dP50c3h4cfvy8jpR6ZBQ1GhEY93MydsY6u0JNrxoHGgu8XoSFNPj8FQucu1AUN3i+0EB8mAqdHz2+OWrr15cvTk5uQh0cvLm6vb568uzINeVFTmhC/iJQnbko7EwLW42MDgaOvN6oo6GspbBS8lHvsNd6AyntDLkgc6ury8fr3V5fR1WfwbKgpxaiwPEKTvy9tOO+GBseeHQWxavS4p6HTh7PnJcFeXdSjAGJEYuU2rkxKpOugyk7MjnzgPcF3XYRM4jLHMxdVlaBitcY+MjR+vo/p0Eo0dRyEGw535wXK00+hxPkBm5myah+lLkXHBlUTDpHyefCPidsv1GBci1BhskRRZOi0K+OgjVGA9aogAvZx2LZZzzoYtKFkfMl5hyBYVbIuScshUadqso5NKPij1lRb7vp5+MyYD3ONG7HvhyTmGAHPnKG0BFyFEGQYdfEBWFXLQcg5URuRneJKWTcyaab+ElVS9iwQW7iRSEmELkuM4W1OL+TZCDkghK7U4NJErwgEYWHjRheWasvAIQMXJs5qCk/U+O3O624+W5SFQZTqhhdbr9U3cXEvO0vsSTfn8KORJMWyTyww8x8jo6Pmo5f27kOnFjmxh5q5QtTkhKDWMxXw2HnYrFfmrvxXmn0MiJJd7PBMjLuIuRwypEC+wvEo98e999ZkQuk1cOy5TdeggFCyL6zPMrY+TGGl2BlqjhhQQ58FjEBu6xDRbr7u7r5jtFXpMfCGQNNxcbwQwKFX+YjGupN4VbMcijlcD+5TzFI99NCEr+Df+dIm/bqeKOIH6oocqgmDI6tDi0WeSIQa61w7cL/xKLfHs7VdytY+lX0pxm+VMZvPoQ8xEAmt1sfEUccq1iealIawV/kCBP6lmk+7HcLXI3A5vY0C1/k4YWWr0fx3UMeZb1AByLvGz6QkGIBPnWdh26Y+QOvw5JBJ34QTXzbQONrYluwxtal7/FIk/WEm9vrSSuJdyU+P6Qux/T8rcxg1xJkNBCWzqhQQ4LJ2Pcxe47Qp7AziPbQN8jck3bqdmSuiFiLNrBaw7rUHVDkgZqoG+DO6M7Q/7gKP5/qy1Htzq/V+ROX9ormwipUxLdxwvV6/t1qELhfRmMvvMUIgt2T5Nm4NrVyFncfRJd6L3eHl+9HtzoPII8un5IkyMH58lEdSaua46HC04thbtJ4moczTEO4JXEW/N5MocGPGGljReVUJL9+kK1omctghvIvedtP9pupTJJmrxtw/Nk4rU76rcb81nVsJyJ5/q5UMvdCnSMPhnqwJbmUmL7+NrayIwqaXYEniXY8zYD8rJpbqE/cvFDaaeVfq2xmixs215MVgeDPrvhLW5J2kOmawlvKaH+Fjs7/7WkkBcuhbxwKeSFSyEvXAp54VLIC5dCXrgU8sKlkBcuhbxwKeSFSyEvXAp54VLIC5dCXrgU8sKlkBcuhbxwKeSFSyEvXAp54VLIC5dCXrgU8sKlkBcuhbxwKeSFSyEvXAp54VLIC5dCXrgU8sKlkBcuhbxwKeSFSyEvXAp54VLIC5dCXrjKWZHfd8f/ugo2WEmp5JtxKWH15Hh5SrHlnBLSXiYzV34ljzKZuTLyPMrizZUnz6f0zBXxvCqn8y1HyqtsQXu9xJZ+1FOToO2oLNhTC6v8OQL/P9jDi3g3g0uKAAAAAElFTkSuQmCC;" vertex="1" parent="1">
          <mxGeometry x="570" y="377.5" width="70" height="25.73" as="geometry" />
        </mxCell>
        <mxCell id="rYe8Sak9IraCX6kGYXkc-42" value="" style="shape=image;verticalLabelPosition=bottom;labelBackgroundColor=default;verticalAlign=top;aspect=fixed;imageAspect=0;image=data:image/jpeg,/9j/4AAQSkZJRgABAQAAAQABAAD/2wCEAAkGBxAQEhMQEhIWFQ8VGBUVFxYQFxkYFhUWFxUWGBcVFRYYKCgsGBslGxgXIjMiJSktLi4uFx8zOTMuOCguOisBCgoKDg0OGxAQGy0mHyYtLS0vLi8tLS0vLS8tLS0tLS0tLy0tLS0tLS0tLS0tLS0tLS0tLS0tLS0tLS0tLS0tLf/AABEIAKQBNAMBEQACEQEDEQH/xAAcAAEAAQUBAQAAAAAAAAAAAAAAAwECBAUGBwj/xABFEAABAwIDBQYDBQUFBwUAAAABAAIDBBESITEFBhNBUQcUUmFxkSIygSNCobHBCBUzYnJjgpLR8BYXQ1NUotIkg5Oy8f/EABoBAQADAQEBAAAAAAAAAAAAAAABAgMEBQb/xAA1EQACAQIEAgcHBQADAQAAAAAAAQIDEQQSITFBUQUTIjJxgaEUYZGxwdHhFSMzQvA0UvEG/9oADAMBAAIRAxEAPwDyXiu8R9yvUsjiuxxXeI+5SyF2OK7xH3KWQuxxXeI+5SyF2OK7xH3KWQuyJ8rr/MfcrNpXNE9C3iu8R9yosibjiu8R9ylkLlzJXeI+5Xbg0u15fUrJl3Ed4j7ldtkVHEd4j7lLIDiO8R9ylkBxHeI+5SyA4jvEfcpZAcR3iPuUsgOI7xH3KWQHEd4j7lLIDiO8R9ylkBxHeI+5SyA4jvEfcpZAj4rvEfcrxbI0uOK7xH3KWQuOK7xH3KWQuOK7xH3KWQuOK7xH3KWQuOK7xH3KWQubChkdh1Op5lVluYzbuZGM9T7qpS7GM9T7oLsYz1Puguyj3mxzOnVAmzUcV3iPuVpZHTccV3iPuUshccV3iPuUshccV3iPuUshccV3iPuUshccV3iPuUshccV3iPuUshclildb5j7lGiQtjAnoqR0rsLfUk6AdStsPh5155Y/+GdWtGlHNI237mgHwum+Ppdo/7TmvU/TsPF5ZVO14pehwe21n2ow08/mYdZs10Jz+Jh0P6EciuLE4KeHeuq5nRSxMaq00Zj2C5TW5jyDMqjWprHYikCpI0iRqpYqCtIVJQ7osVxFae01CLDEU9pqCwxFPaagsMRT2moLDEU9pqCwxFPaagsMRT2moLDEU9pqCwxFPaagsMRT2moLDEU9pqCxauckIAgCAIAgNjQfL9SqS3MZ7mQqlAgCAo/Q+hQlGnWp0BAEAQBAEAQEsWihkovWxibLZu0WwxvbY8R17EWsMvhvnyN16GFxkaFKSs8z2enLT1OTEYaVWcXfRf5mBJE8DE5rrHm4GxvnqdVxShNLNJOz4tPXz4nTGUW7JrQ3tK4vpDiztexPkcvxy+i9im3PAPPw28tvseZUSjillNQvHO8gk1Kq9zWOxDKqSLxI1QuEAQBAEAQBAEAQBAEAQBAEAQBAEAQBAb47JqKeKF80TmMmaZIy8EYm4i3nzyvbo5p0IWbab0M6iaZEoMi4Rkgut8Itc9L6KLq9iHJJpFqkky9swQRvLYJjNFgYcZYWfEWAuGE30Nx/+XJX4lmknoc2tTcIAgCAIAgCAli0UMlF62MTLoZ2i8b7CJ3zEC7hYXGE+oHJdOHqxV6c+693x91vP3GNam324d5bcvMzYaqOX7KUgQx/IcwXAfC2/X4ell2U69Kt+1VayR23TdtFfy8DmnSnT7dNdp78bcX6la/aLXjhRC0Ytyte2gA6KMXjITj1VJdlepFHDyg89TdmvXnHUQSalVe5rHYhlVJF4kaoXCAIAgCAIAgCAIAgCAIAgCAIAgCAICoNs+aA6ar3lrKyGKOonfIyEYWhzicWZIe/xvscOI52aPO+WRRehnVk3oY9JTule1jdTz6DmVWc1COZnPVqKnFyZ1po2Mj4YHw878+pPmvM6yUp5nueIq05VM7epy20aQxOt905tPl09QvRpVM6uexQq9ZG/ExH6H0K0N0adanQEAQBAEAQBASxaKGSi9bGIQBAAUBXEeqCyIXk3Oazb1NElYtuoJKIAgCAIDN2XRslfhdIGeXN3k0nL/Wi68Hh4Vp5Zyt834cP9sc+JrSpRvGN/p4mw2zsiGJuJr8J8LiTi/p53/D0Xdj8BRpRzRlb3PW/hx+ngcuExdWpLLJX964fT6+Jol4x6QQBAEAQBAEAQBAEAQBAEBsaD5fqVSW5jPc6fdaH55PRo/M/ouDGS2ieT0jPuw8zdz6LkjuefT3NTtmHFETzb8Q/X8PyXTQlafid2FnlqW5nNP0PoV3nrI061OgIAgCAIAgCAli0UMlFmIq12VshiKXYshiKXYshiKXYshiKXYsiigkogCAIAgCAIC5ziTckk9Sbn8VLk5O7ZCSWiLVBIQBAEAQBAEAQBAEAQBAEBsaD5fqVSW5jPc6/dg/ZO/rP/ANWrzcX314HidIfyLw+rNnPoueO5yU9zBrv4cn9LvyK2p99eJ1Uf5I+KNVunsmKsqoqeaZsMb3AEuvd2f8NhAID3aAusM+ZsD6MnZXPchFOVmc1tSlZDLJEyZk7GOIEsQcGvA5gOA/UdCRmdIu6ubyVmYisQEAQBAEAQEsWihkoiUkBAEAQBAEAQBAEAQBAEAQBAEAQBAEAQBAEAQBAEAQAlAdnu1uNtOpYCyle1hPzz/Ztt1GOxcPNoKxnOKe5nOLudlTdn9bQwyTSvic0WJZCXOIA1dcgaXz9FxYlqaTXA87pDDtwzrh8vwa2fRcsdzyKe5k7L3Xn2iyVkTmsDQLukvhJJ+XK+dgfT6ropWUrs9LB0nOebgjVbV7NdqwAkQtmABzpnhx+jXYXH6ArtVSLPUyO555PA+Nxjka5kjcnNeC1zT0LTmFunfY3aaI1JBVALIBZAEBRASxaKGSiJSQEAQBAEAQBAEAQBAEAQBAEAQBAEAQBAEAQBAEAQEtLTvleyKNpdI9zWMaNXOcQ1rR6kgKG7K5KVz6T7PuzOl2axksrWzV9rukcLtjPhhB0tpi+Y56A2HJOo5P3G0Y2N3vdvPT7PaHykl7vkjZ8z7anPRouLk/iUp0ZVHZGFeai7s8w2r2n10lxGyOFhGXw8R1sx8z8iNfu9V2xwdNb6nHKvJ7I1WzKkS09S9+T4mscLAAOu+2g06ZdVyVMClUWV6P0OKGEVptPl8y7Ye/dbRt4cfDMVycD2DU6/E2xPqSeS7PY6VrHRSm6ccq2PSN0O0CCue2CRnBqD8oJxMf5MdlY+RHoSuSthZQ1WqOunVUnbidBvTunR7Sj4dTEHEAhsjbCWO/Nj+XpmDbMFZRk47Hc1c+Zd991pdl1TqaQ4m2D45ALCSM3AdbkQQQR1HSy64TzK5jKNjRMVypdZALICjggLEBLFooZKIlJAQBAdBNuTtNkBqnUjxThnFL7tI4dsWOwN7Wz0VOsjexfIzn1codBs/cnadRC2oipJHwOBc14LQCASCQCQbZFUdSKdi+RnPgq5QIAgCAIAgCAIAgN3sTdLaFawy0tM+WNriwuaWgBwDXFvxEcnNP1VJTitGWUWzJrNwtrQtL30M2Ea4Gh9vMhhJsiqRfEnIzm7q5U6v/dvtn/oZPeP/wAln1sS2Rmr21uxXUQDqmlliYcg5zbsv0xtuL+V1ZTi9iHFo1CsVCAIAgN9uJWtg2jSTPF2MlaXeQsQTbna9/orQous+rjuyJVFTWZ7H1rG8OAc0gtIBBGYIOhB5hec007M6U76o8q7Yt3qh8rK6NhkhbGI3taCSzC5zsRAzwHFmRpbPVduEqRSyM48VSbeZHFbw7dFe2nYymjjMUbWEwtNyQXZDPKPMEA5gl2ea3jFUruUvj/tzkrVlJK6tYwYaWoax7A2zZA0OBLcw1wcOeWYCzeLoXTvt7mc/tEEmr7mHNTPZ8zSPy9wt6daFTuu5aM4y2Zv9w936isqonRtIiikY98v3W4HB1gebzYAAdb6KtepGEXc6aFOUpJ8D6HXknqngP7Qm0I5KqmiZYuiZIHkcnOcw4fUAA/3l3U6EoU4zl/a9vK2pzyqKUnFcLHlkI1ViCXCoAwoCyUZICFSCWLRQyURKSAgKO0KErc+udgmI0FHFLYtmgiiDXaPvT4nM/wNefQFcL3ZufNFdunMzabtlNuZOMImuOfwOsWSED+zIcfqupT7GYyy9o+oYoIYad1NFkyCIRhvhaI7NB87AH6+a5DY+aOz3cSo2u9wY4RU8duJK8F1iRkxjcsbudrgAanMX651FFGSjdnay9jtJO2RtDtNktTFk9jixwDswGvMZvFmDmQdDks+ufFFsiOQ3E3HO0K6agne+nkhjke6wDnB7JI2Fpvlb4zmOgWk6lo3RWMddTsdndi8BkfFUV+CUufwomYOKYmuIbK8E53AvYDLr0zdZ8EWyI4PfDcuo2dWNoieM6XBwXMGHi43YGjCScLsWVrnlnmtI1E1co42Z3TuxqnghaazaTIKh9g2+BsWMj5AXkGQ+lvRZ9c3si2RGr3r7Kv3fs51bJUONQzhh0YaOHidK1hwu1IzuMuimNW8rBwViDcrsudWU/fquobS0di5pcBicwXBkJcQI2dCb3GdgLEzOrZ2REYczJ3m7KBHSurtn1bauBoLnAYSS1t8bo3sJD7WN22ByOpyURra2kS4cjr+wWQt2VVubqKiYj1FNAQs6vfLQ2OP2F21bRZKw1XDlpyRjDWYXhp1cwtOo1sQb2tlqNJUVbQqp62Nh+0Du3FE6HaETQ3jF0cuHIOfhxMkt1LQ4E87DzVaUtGiZLid52tbV2nTU8DtncTiuks/gwiY4MDjm0tdYXtnZUp5b9os720MbZu1Z5th1Eu2mCMlszPtG8N8jMIDCY8sMheSAAAcmkao0lLshbanzeF2GDCEBAEBm7G/jxf1foV14H/kQ8Tnxf8ADLwPZ9i7xV2zGRiRhfSSND2B5ys4X+zkF8J6tN/QXuvXxOCw2OlLK7TWjt7ua4+PqefRxNfDJZleL2/DO42Xv9QTWDpDE/wzCw/xi49yvCr9DYqnssy9323PUpdIUJ8beJkybE2XVkvEcL3OzL4HAFx6l0ZGL6rzqtKotKiatzuaTo0K+rSfh+DHO4VD4XjyEh/VYZEYfpmH5P4slZujs2IXfE0jnx3FzT6tebfgrwpu94rU0hgsPTd7fF/cvqt69m0rQ0TR2bkGQfHa3IBmTfrZd9LozFVXpB+enzLTxlCnvJeWvyOK3h7SZZQY6VhiacuI+xkt/KBkz1uT6L3MJ0FCDzVnmfJbfn0PMxHSjkrUlb38Tx/e9xL4yTckPJJ1Ju3MqOmVaUEuT+hPRjbU2/d9TTUw1+i8RnpM6/crcSp2q4mNzI4GGz5XkEtNr2bGDdxt1sPNZzmoloxubHfnszqNmtM7JGzUgtdxIZIy+gcwn4uWbSSegUQqqWhMo21OBqBl9VqiiMZSSSxaKGSiJSQEBR2hQlbn0Hv3tR9HsfZdVH88MlE8C9sVoHXaT0IuD5FckFeTRs9jqmbGo5quHbocLClIBIywuAc2a/IiN0jfR3kqXdrEmg7LttOr4NqVbsuLUyFoOoYKeJsbT5hgaPorTjlaQTuavsbxP2FVMp8qq9SBbXiuhbwz7YM/LyU1O/qFscf2BU8v7zcWtcGMhkbLkRhu5mFjuhxAZfynotKrWWyKQvc7jdt7DvVtHBp3YA20xDuYd+OXqCs3/Giy3PPttSu/2mxXOLv9O2/O3Eibb0w5ei0S/bKvvHovaA9jdu7FL7YbyDPxEgM/7y1Zx7rLvc5T9oWjqDWU0mF7qcwiNhAJbxeI8vbl94gx+tvJXotalJ3Om34gmj3XZHMCJ2xUbXB3zAiWL4XeY0PoqQ75d7EfaS10m7lM6m/gBtI54b/yRGLXHQO4ZPS3kkLKepEttCn7PjHsoaqSTKndMXNLvlOGNokcL6jIC/8AKeims05aCGw7C7HZFZhBtx57Dnbu0Fgoqd4LY8d2FunXVkrII6eW7iGl7o3BkYOr3uIsABn56DMreU0kUUXc9V/aJ2hGynpKIG8mIzEc2sYx0bSfUudb+hyxpLdl5M6jte3krdn08ElGbPfJgddgf8OBx0OmYCrTipPUluxh7jySbfoZW7VpWnC8tilMeBxBaLvjv8rgfvNsDpyN07Rl2WFqtT54lYGuc0ODgCQHDRwBtiHkdV2Iwe5YhAQBAZmxzaeL+r8wQurAu2Ih4nPil+zLwPZNhbQlZEI4HsmjI+0pKoAgn7xjvy55Hnnde1iqMJTzVE4vhOP1PPw9SShaDTXGL+hSdmypDaWKoopc7hv2kV/R3xewASLxsF2JRqL4P7fEiSw0n204P4oi/wBmaN+ce04CP7ZpiP1xFW9vxEdJ0JeTv8iFhKT7tVeehhbX2QaZgcKuCUF2HDTS43DIm5byGVvqFvh8Sq8mnTlHjeUbGNai6UbqafgzSldpy3L4Iw5zWlwaCQMTtG3NsR8hqok8sW7XJis0krmyqqKmiFQwzmSZjmCIxC8UjSfjcXeQ/Ec+XNTq1puDyWi0733XL/fI3nTpQUlmu1tbZnC72n4ovR35tXk9NPtw8H9Dv6M7svL6mrohe/0/VeIz0ZOx1O71FUwyNqGSvgeNDGbPI6EaYfJwI8l6OH6MlU1q6Llx/BwVekIw0hq/T8ku9NRVVshlmmdKRfC19g1g/s2iwb7XPMlUq4BRv1Xw/JanjHJds5WtYQLEWN+a4bNOzOyDT2MFSXJYtFDJREpICAEIDtN5u0KWuoYdnugYxkPCs9riS7hRlguCMr3uso08srl3O6sWU/aJVs2Y7ZIa3hlrmcUk8QRufidHbS1i5vkD5KeqWa5OfQk3J7RJdl081MyBkjZXl5c9xaRdjWWAAz+W/wBVE6eZ3EZ2Rq9yt8KvZMhkpy0seAJI5ASx4GhyzDhc2I681acFJEKVjtto9uNU6NzYKSKCV2shcZLG3zBuFov63HkVmqHNlusOO3L3ym2ZVSVgYJ5ZWPY7iuIJL5GSOeXC9zdn4rScMysVjKzMSr3ifJtD95GNofx2VHDucN2Oa7Di6HDr5pk7OUZtbm23w3xl21UUpcyOmcw8Nr+I7C0ve2z3vtdgaQDcaaqsYZEyXK56rW1+9dHFHEIKWseW240WK7Te32jXFlzbO4AHXzwSgzTUi7UJ5INgMhrJAa6XgB2YJdKJGyyWtlYBrtMtLclNNXnoRLY843I7T6zZkfd8DJ6UXLY5CWuZc3IY8Xs0kk2IOuVltOkpalIzsZO9/azV10DqWOJlNTvGF4jcXPe3mzFYYWnmALnS9r3iNFJ3Yc+Rjbh9pU2yYH07KdkrXymXE95aQSyNlrAafAD9VM6WZ3EZ2Rvazt0rnNIipoI3eJxe+3oPhz9VVUFzJ6w8z2vtKerlfPUSOkmf8z3W+gAGQA5AWAWqikrIpm1uep/7+Kn/AKKL/wCR3+Sx6j3l+sRqd4u2XaFVE6GNkdO14LXOjLnSWORDXH5bjmBfoQrRopbkOpyPN1sZhAEBVErgqLjMZEZ+iuoS3RDsd/urT1dbE+SOnkcIrYnsb8JPRvV2hLRe119Fh+k6bShWaUvR/bzPHr9H1IvNT1Xqjaw7bqY/gLsQGRbMMX0N8/xXZLCUZ9pK3vWhyrE1Y6P1JBtiM/PSQk/yAs/K6r7LNd2pLz1LLER4wRjV9XDI0COARuvckPLrixysf9ZLSlSqRd5Tv5FKlSElaMbGCtzAIDKk2XVcB9U2mlfCwXJY0m46gfeA5kXsMyuPEY+hQeWUu1y+/LzOujgqtXVLTmedVtU6Z5kdqdANAOQC+axE6labnL/w9ujSjShkiSbN2g+nfjaGnkQ4cvI6g+n4qtGtKjPMl8SK1GNaOVnY7L23DPYA4ZPA7U/0n735+S9yhjadXTZ8vtzPEr4SpS13XP78jG2hXRw3xHPOzRm4/T/Nc1atGm3c3o0p1O6cztLaTpjoA0aDU/UrzK1Z1XsepRoKmt9TBWBsSxaKGSiJSQEAQBAEAQBAEAQBAEB0Wy9+tq0zBFDWStjAs1rsLw0DQNxg4R5BUdOLLKbNVtba1TVv4tRM+WTQGVxNh0aNGjyFlZRS2IbbMJSQEAQBAEAQBAEBWyvGDYL4YnPcGNaXPcQGtaCXOJ0AA1PktMkVqxqw9haS0ghwJBBFiCNQQdCtFbgQzZbr7J77V09JfCJZGtcRqG6vI88INvOypUlli5ExV2fW+zqGKnjZBCwMhYA1rW6AD/WvNeQ227s6Ty/tj2y1kjKVkTOIWCR0rmNLw0ucGsY46fKbn0XpYCdWHajJpcr6fDY87GqLdmjzQVj/ACPqP8l7Eekay3s/L7WPMeGgy7vzugV/1SpyRX2WPNlDWu8lV9J1nsl/vMlYWHvN7uRtwQVcQliZLHI9jDjY0uYXOsHxnkQTn1C4cViK9WD7bXhp8jqw8IQktD6FXgntnzn24btxUdYyaEBsdS1zyxuQbIwgPLRyBxNNut16OFm5Rs+BjUXE84XUZiyo6aYuVDXPdYAueely4n8yspxa7TfmLqK5IlrKGWEgSMLb6X0PoRlfyWMKkZ913KU60KivB3MdXNCWLRQyUU4TuivlZTOhwndEysZ0UdGRmQocWiVJMsUEhAEAQFwCArZALIBZAUIQFqAIAgCAIAgCAIC4Bbxp23IC0B6P2Ub70GznFlTStD3E/wDq4wXyNB+69puQ3+joLtJzXLiKMp6p+RpCSRB2p75UW0pB3akAc051T7tlkAysGN+7pYvufJqvhsPOO7E5pnJ7tVL4auCVhs9jw5vS4uc+oXpUaEZzUZbPQ5a9RwpuS4fc+pd2d5YK6MOYcMoHxxE/E087eJvQj8DkvGxuAq4WdpbcHwf59xvhsVCvG634o1+/O5UW0mtcHcOpYLNktcFt74HjmL3seVz5g40a7p+BatQVTxPK6zs72jCTihxsH3qc8TF6N+YfVq6KmNSXYV2ebWo1YbRv4f65iHdmYZGnnv5xvv8AkuR46tyXwONyr/8AV/BksW49dL/Cp5f/AHW4B/ifZb0sc27TXmb0o1puzg/l8zutyezPu8jKmre18jCHMijzY1wzDnOPzEagAWBGpU1sVmWWJ6VHDZXmkeg7QroqdhlleGRjUu/IDmfIZrnpUZ1ZZIK7OmdSMI5pOyPnHtd3gNfUxyAFsTWvbG062u0lzvMn9ByX0LwCw1OMX3ndv0+R59HE9fKTWytb1OEIWEoNHQVZa4vfDfO2tudr81m720DvbQ7zd1tJh+wsXW+LF/E/vdPpkvBxbr5v3fLl5f658/jHXzfu7cOXl/rmyrBGWO4uHh88dsP1uuaGbN2d/cctNzUlkvf3HnW1hTiQ93xYP5tL/wAt87eq9mn1lv3Nz6XD9bk/dtf3fXh8DHi0V2dCMldJyhARz6Ks9i8NzFWJsEAQBASMCAusoAsgFkBRwQESkBAEAQBAEAQFwW9ONlchhaAICoC0hC+rILluQZeyP48f9X6Fb4f+WPiYYr+GXgdWK6WB+I4mgG7ZI7gtvpe2Yy5helOra6qK8ee68Gjx4QvZ03aXLb4HZbG7SqxgAL2Ts/nHxAdMTbfiCuCp0Rg6+tN28H9H+Drj0hiKWk1fxOlpu1OM/wASme0/2bw78w1cM/8A56f9JrzVvudMelof2izLHafRf8qo/wAMf/msv0DEf9o/F/Y0/VaPJ+n3IZu1GnHyQSk/zljfyJV4/wDz9X+015Xf2KvpanwTNJtDtNqn5RRRxDqbyOHoTYe4K7aXQFGOs5OXovq/U5qnS1R9xJepyO0tpT1Lsc0jpHcsRyHk0aNHkAvYo0KdGOWnFJf74nnVa06rvN3OS3q+aP0f+bVw9Ibx8z0eje7Ly+po15x6RaQsZw4okuikc0hzSQ4aFpsR6FYuKkrMiSUlZ7G6koaupGKV+g+Fr8vrhHy+trrrw3RMlFuKUfHdnnrEYag8sF4tffj8jTVNO+M4XtLT58/MHmuWvRlB2krM76dSM1eLuikWi42aoyV0nKEBHPoqz2Lw3MVYmwQBAEBPEMlAL8KEGdTbEqpYX1MdPK+nZ80jWEsGt8+drZ2052UZknYtldrmAApKlHjIoDHUkhAEAQBAEAQFy6yAgCAuC6od1FSqkE1FMI5GPOgIJ9ND+C0pTyTUmZ1oOdNxXFHpVNtON7GsmZjYAAySOwka3lY6OHquypgqkZuthZ2b1aesX7+a8UfNOLTIZd3aWY3imjv0kvE/3+8VzTryj/yMPJe+HaXjpZrzNY4ipHT8kTt0KsfIZCOrZGuH0uVWPSOD266SfJp/Yv7VF7xXwI37HqYPilxYT8IxAa68vIFd2DxVKrNqFXNpt9Sk6kJK0UkWL0TMvgc0OaXNxMBBc29sQBzbcaXGV1Ek3FpOzLRaTTa0NjVbUjtPFDAxkMrmubju+SMNIIDJDpfO+upC5oYeV4TqTblFPbRO/NG868bSjCKSfxXmcJvLUNdI1ozwAg+ptl9LD3XFjqilNRXA9Do+m403J8TULiO8ICxchYz6ba80bS0OuOWIXLfQ/wCdwuunja1OOVP48DlqYSlOWZr4cTDlkc4lziS48zmuaUpSd5O7OiMVFWirIRaLie5ojMX0ZyBARzaKk9i0dzHWJqEBQrOr3JeDCI15JcyqcZKGQzfbo1VDDUNfXU7p4PC11g03+ZzP+KP5SQNcjoqSTa0Ji0nqfSWy949nyU3eIZ4hSMABNwxsQtk17Tbhm1vhIC5XF3sze54N2lbW2VVTYqCnLH3Jkmb9nHL1tDbM3N8Zwk9De66aaktzKck9jipG5H0K0KGGpJCAIAgCAIAgLgumLuiArAIC4Fb05cCGVWhAQGbs/askOQ+Jnhdy/pPJb0cTOlotVyOavhYVtXo+f3N7T7egfqSw/wA4y9wvRp46lLfQ82pgKsdtfA2FPVsObJB/ccP0XRnp1Fun6nLKnOPeTMh873CznOI6OJI/FTClTg7xil4IoQvkaNSB6mys5RW7JUW9kYU+2Kdn/EDj0Z8X5LnnjKMeN/DU6YYOtL+tvHQ09dt97/hjGBvU/N9PD+K4a2OlPSGi9Tvo9HxjrN3+X5NQuJHeEBQlUnKyBaucsEAUN2VwXxaLkZZGWvozkCAsm0VZ7Fo7mOsTUIChWdXuS8GERryS5m0o+H6qrKs3+zN25JbOkvGzz+c+g5fX2XLUxUY6R1ZwV8fCGkdX6HRfuinYzhiNpabXxZkkXsSeuZ9L5Lj66ble55qxNWU8zZodo7uEXdCbjwu1+h5/X8V108SnpI9Cljk9KnxNBURlocCCCAbg5EZcwupO+x3xaeqNcrmgQBAEAQBAEBUK0ZZWCq6U77EBAEBUFaxqcyLFy1TT2ICkCyWBaWhRlJuMA6KMouxgCZRdlbKbEFVICN2BQlZSqcibFqybuSFACXsChK55zzEkkWizZKJOMfJe91jMMiHGPknWMZEUdITkoc2yVFIsVSwQFCs6vcl4MIjXklzfbsbWhpz9pHc3yfqW+gP5ix9VzYilOa7L8jixmHqVV2JeXM76mqWStD2ODmnm39ei8uUXF2aPBnCUHaSsys+imIhuY73AAkkADUnIBXSuapNuyOT3k2zTyAsY0PfmMemH06/ku6hRnHVvyPVwmHqQeaTsuRyy6z0QgCAIAgCAIAgKqVJrYFbraNRPciwWgCAICt1dTkiBdW61ixW6nrULC6nrULC6dahYpdV633CwuqupJixRVvck227Boe8M7+JTS8+72xXuLYr54Nb4fi6LOpmy9nctG19ToO0h2wy9v7sD8eWPBfu9rfdD/ix6Xtl9brKh1v8Af8lp2OJutZVEjMosZSbJKKoJYtFDJQXtmYQBAEAQFCs6vcl4MIjXklwgMmhrpYHY43lp8tD5Ec1WcIzVpIpUpQqK01c6Zm+l47PivKNMJsw+Zvm30zXH7H2tHoea+jLT7MtPU57aO1Zqg/G74eTW5NH05/VdUKUYbHfSoQpLsrz4mCtDYIAgCAlj0V47FJblysVCAIAhJAsjQICqlSa2AutFVfEixW6uqkRYKykgFICAIAgCAKMyAuqupEWKXVHV5CwWbk3uSUUAIAgJYtFDJRNwgvZuZjhBLgcIJcDhBLgcIJcDgjzVKr7EvBkrcp3YdSvIuaWHdh1KXFh3YdSlxYd2HUpcWHdh1KXFh3YdSlxYd2HUpcWHdh1KXFh3YdSlxYljpxbmrxehSUdS7u481a5GUd3HmlxlHdx5pcZR3ceaXGUg7sOpWVzSw7sOpS4sO7DqUuLDuw6lLiw7sOpS4sO7DqUuLDuw6lLiw7uOpU5mLIr3cdSmdjKindx1KZmLId2HUqLiw7sOpS4sO7DqUuLDuw6lLiw7sOpS4sO7DqUuLDuw6lLiw7sOpS4sSR046lLk2P/Z;" vertex="1" parent="1">
          <mxGeometry x="873.65" y="258" width="56.35" height="30" as="geometry" />
        </mxCell>
        <mxCell id="rYe8Sak9IraCX6kGYXkc-43" value="" style="shape=image;verticalLabelPosition=bottom;labelBackgroundColor=default;verticalAlign=top;aspect=fixed;imageAspect=0;image=data:image/png,iVBORw0KGgoAAAANSUhEUgAAAUQAAACcCAMAAAAwLiICAAABa1BMVEUAAAD///848ObZPv71H1s5t/IQEBCxsbFOTk6Dg4M6OjpJSUlubm6UlJTz8/MaGhpkZGSamppbW1t5eXmIiIhjY2Ojo6P/I2HY2Niqqqr5+fk7+O0ZfXhoCyjgPv8zMzODEDAWZmM5wf/f398pKSnIyMjo6Oi3t7cjIyMWFhY3tfNDQ0M0r+nJGUsce3E14+ADEwsiBQ7lHlcmsqwswLa3FUUQRT9BCBYcjINICB0GFBUaAAkUU1Mmq56vF0HnH1oim5Eec3CdFTkv3tENMDAtBAwvzsUAGhYNQT3WHE8KKyacAC6Nwr/Rn60WV3Iwn9UeYYQFICxiABklCjJvIYe9NdwskcB5IoupMMgMLDwPCBoidpsPOE1EEFGFKZ5kH3kKHSISVkxaBwDIN+gpo7CzHXSRK7VXCx8TSFwWCyAgd5pBE04IFiC7N9c2EEAmn81TAFcthLsoCC1/ChXaG0MMFipSG2azVGljpJ9V+0ODAAAJ+UlEQVR4nO2d+1fbRhaAhbF54wAhCFvEGPFw6kAolLQNJYHgPCDdxeSBAyEhyXpLyIOkTbvs/vmr0UjW3NHIyPKtY3Tu9wvHI8kz/s4daZ5C69KIpiGJCJBEBEgiAiQRAZKIAElEgCQiQBIRIIkIkEQESCICJBEBkogASUSAJCJAEhEgiQiQRARIIgIkEQGSiABJRIAkIkASESCJCJBEBEgiAiQRAZKIAElEgCQiQBIRIIkIkEQESCICJBEBRIn9A0MuA314X3sBQJTY3eExhve1FwBEiRmS2DwkEQGSGIkbi98Ln4IkLi3nm8nkAtCMxB8MY0X4GCRxQddvNpHLBSC6xB8XjUTCmPASRInDXnJeTyb15Z+aKGPbE1nizwnOj7WUMWUk3kra6PmmitneRJS4umJwh0aplqaWuK07Fm/+0mxZ25ZoEtdKjkPL4m03USnxjuPQsrh+C6G8bUkkiRs1hcziXSdVJfFqzaFlUd/EKXPbEUXiakmUmEjc48kKifeXkwL6Olqx24tIkXgPSDQe8FSFxAVdlJiMa32Odk+cgBY37ES/xE3gML4P6IhP5xVocY2lDQsSMyzhFnS4gFfqNiOixIeLQGKJdf98EsENMblMTRyZNRiKrPsnS7wJA/EdYqnbjMg9lg3wgGbdP0liHjqMa/OGEb3v/ABYTGxJEpdAXU5uI5a57Ygu8RGUWJIkbsPWzX3EMrcdTQyF3YW3xduDosRfYWW+GjmXyUJ3d3dhRE4espNn/OfP9A5mxgYHvvMf6bEvuS58dXddMqHdNDeeCCz+Q5D4T+iwifHEHvv7euVkHva+ScXrs1legGz3NfnYgH1gyEvo76hL9lLYMjYicae8+xgkLII+9MR4Lf+5J0DiMrjq6bO91+Ez7VdLHFRKFCccOwalg1ziFS/hen2JaUU0q2lEYsU0U192D7yELfiAnsy6+fdAiUJ37/Pz085cbj98pg1I7BqHFgrwkraQuJpimKnyYc2j2P2zWjmXazEARm/y7umfn+91cl6EzrUBieOyhgw43KjE7N8hccdMOZjlw5c8Tej+saZiwc59Fg6BOTfEV0fVXM5xmAtfn8NLrE1PpGs14rJ43C8xLcCvEVPm/o57YqXoSkwVWTwyj29KQKI2xwrSBSWya8+OPYNMYvj6HFpinxM/w9evXetxbo5z4iU+idolD23UPjrSJaaFJbzET/OeRB6P85bHtwaQ2OMU05Oo/0t7dVztFAwyqqGzDS2Re0s7SVf8oeiXKNJrH+0JXS6R8BJ3JIdMo+Xx3yXD8CRaZbEn+hyJur7823FnTjLIQvEsbLZhJXaloQUuZVy4pB0kVvwSU8WUWXyzdtv26Mye8slSJtEyeOfJZzkGG63PYSXy9qTwQJ62A1N4OLSDRIVD22PZOra2sWiIU9CWRH19k43b7KkUNlKfw0rkEga8BD5GLHRQ2kDiiamWmDI/2McfbUwJZ7/b5J3lY2UcNlKfw0oclZ1xK0J/0ddjAbREYiVIYtE8CbzoLMhh+PrcmEQh4XIbSvwwbwZoLKaCms7vq0EKc9WjkPnGSqKmvTwsmynlnfFLwBWn6odKbu/4VehcYybR4uWHsh168m3xUHn2kcJhrrN69LGRLOMnUePxKNdrU3lbfOVrH1ox2JhBLaYSLQ6seDTdcCwWzWJl55PitPev98VGIjP4ufHM4irR4mDX8mgbnK/srAae9ovrMdd5GsWgFmuJGvP4xUxVds77ghfMY1SDWtwlatrvx0dfQ5x278MfW9EzibXEMzY0k+s87z53cMjqvVXpg1vk9YmvRDY8WGuz7AXG42PboPMAiugxnhLtm1wOtlyqqp7widwWCnqM1yWGEl88kw3aFvdU566WpVZ5kQ3kNuoxbhJfwIafgPq+eKDsJLJHenCjyEesJH59dqoaorYDMWjaaddUD0Iyj48DrpGJlUT1YILtMHhUSzUa7ngsh8wXW+I3HZRVjSZwqs5ImLhm6SH/szofKFE9ZuEnVpH4NVAiG1JYunoTLMmeMlbuPrL+HgQO5YatziP2j7ssJ4/Kv5kvzpn0ErgzYb7AN9QNaM2DpRpQmY+0+/mFdd1d6MAXak0ZCSOxMvFI27X61yqJYWuzI8cXP0N28qiXMGsnCD+Hz0MLOzX5nKowgQBojURlfc7l9v9cSOp6bbXIpaxdyil7GtVIPLhRLqqCMXRttpcDdHT4lnhN2snTgZ8t7JR07eMle04VTOeLtEbiR7/BztPnX//SwZKbcf5Dptw5faP0n91KyjeQax7UzcuDh8+4/wBfeJOBH8FedR6bhYCPMi1qJ1ZzksFnT8HevbzG5ylZOafA3r83u5UinFmYD5fld3xxj3hnc+E/uoOvxOxz1jKBtTm8xncU7OUgM9xhsKUWSfTqs9Ve3H/9nqUJa26YxBH3J08JC51usBM/7VRSZoO1eXiWr2qAtdTFOZaeHc44guQwc8xmZ8fG3LWfipB2aJHEj4JBJ2kJrqDr4kXNTooSa3v/tJ3KvOk8Zl6GydDRFPAwGOmQmZN+jH/pXFqxPtmhVd2+qj3WsH/mzZBuJ4FENyLGgUR37x+DeQz9bHYlKiozo1cylPUtPh6SJQa1b7TWSTzOVY/BcA3Yu6f/OVor7BjYK+Ts/XM4sTyGezZzidmg5rHTEqzFoeKtUFeg5f46mbVK4lNpwOsqXN3+X6G8/wPbM4y38MKTcC1tW2LB17rx6Jv1BKlfIjNT8MrUXXfl67eaHkhCxH0sBbhVqPQmyvfPZecyQW1jh57CXNZiejjwZtefYWekp8cmg87gfCOJ0t69J2Az0JZ/71/D1IlBkZlzzzv/DKst3jdpEU1HdIm+vXuixG55S/TPkfO5AESWeAvW5W1NkihtiRZe/RI/IktchxKXfBJ9e//iS1SJd/x79ySJsMGdMH5ALHWbEVGi1Lq5w9JkifDNL96rX+JHNIn3YV3me/d8ErVFWKMfopW6zYgmcRtK5Hv3/BK3oMQH9b7yIhNJovpVLX6J6le/xI8oEpfWQZ/ZfVWLQiJs5xiJBuabLxLRqrP45qXaZmaVRC0hDCyufK/+tgtPxKfzpheItVe1KCW+9cIwvp2WqO3Ed8u6291zUUp02znG4lvV18SD6H1ne/xBF17VopbIX/0S56Z2U6M4eRaJwrKHAIl292/Cf3mMaGY88adl8KqWAInaXaN0T740XjT3svK8+CFIonajqTwuAIhvfA+UGHtIIgIkEQFEib3T4y7Tw+efHiPo3yshQBIRIIkIkEQESCICJBEBkogASUSAJCJAEhEgiQiQRARIIgIkEQGSiABJRIAkIkASESCJCJBEBEgiAiQRAZKIAElEgCQiQBIRIIkIkEQESCICJBEBkogASUSAJCJAEhEgiQiQRARIYvP8H6prGgqC6WXDAAAAAElFTkSuQmCC;" vertex="1" parent="1">
          <mxGeometry x="30" y="550" width="74.77" height="36" as="geometry" />
        </mxCell>
        <mxCell id="rYe8Sak9IraCX6kGYXkc-45" value="" style="shape=image;verticalLabelPosition=bottom;labelBackgroundColor=default;verticalAlign=top;aspect=fixed;imageAspect=0;image=data:image/png,iVBORw0KGgoAAAANSUhEUgAAANsAAADmCAMAAABruQABAAABNVBMVEX///8AAABTtSIEBAS4uLhOtBDt9+dUtyLY2NhJsgn4/PVUuCJQtB1GsQC23afDw8OpqanJycne3t7W1tbQ0NCioqJ0dHSSkpK1tbVnZ2dXV1eIiIhRUVE/Pz/5+fleXl6Wlpbv7+8dHR0lJSUwMDAVFRU4ODh7e3tISEjn5+cRERF0wlCDg4MtLS12dnbz+u/c79PF5bir2ZdJnCFgujOQzXRDjR+94a6a0oJmvTtRriRQpiYrXRGCx2PZ7tDE5LU7ex0uWhkxbBMWJg4QGA0fOxIcNBF2w1SLy22l1o7N58KDjX1Naj87fRwXPAAnShcZTwAaJxQMEwomTxElRhYKAA8mPBxNmikLMwAZDhxBiR8lGyig24at0J0kPRq4v7VMW0QRKAZjjU9vqFVNhjMZIhNoqko9htf/AAAakUlEQVR4nO1dCXfbRpImCFCkTMoAQYL3BUoURVqU4siWZclOLPlI4o0mkzhe7XhmZ9eTyfz/n7Bd1QcaQDdExwSg2ed6zxEPHP11VX91NZhC4Yt8kS/yRb7IF/kiX+T/sdzb+lS5l/eQ15PjJ88flT5VHj1/cpz3wG+V47PSdq1W/FSp1bZLZ3cc3cPq9ifj4rJdfZj38JPkbOfTVSYpb+csbwB6Odv5DGQgdxfc/c+FRsA9yRuEWo5Ln2OQVGqlu0koj0ufDa1YLD3OG4ZKvvp8iwTZ+SpvIAp58PkWCVJ7kDeQuHy7GbURxX2bN5So3Hu0GbURxT26a8Hl1388HonK9td5gwnL1iY4kktpK284IdkI/wtsd8oPfLMpIqGy803egCRZk/9ra2Y/d8kPPFxLbbXSgweP1ksUdu5MtrMe/28/JxRx72FxnWPvjh9Yi/85QWytZZd3xQ+sx/9lron7a3nCO+IH1uL/gNfXm4q74QfWi/+37/Pj761z+B3JB7T8X9veDlSkxBY6Inr2HfAD2vh/++n9b3+ocuAKbLXtxw8fnmmT9fzzAR3/13aQ6Y6/q2mxld7C260HGm7J3w9o+L9GB07AVXXYxCffazSftx/QkF6tKJjgrKTBVhJq0ZX+cvYDav6vlYNRPdlWY6s9Da6iAZevH1Dzf60kxfFfa7AVq9J1HqstO1c/oOb/UKT7tKbBtvNWOuo75YXy9APq+H9H5oAfmEbi2GqPpOV0Tx1C55cPqPm/9p10yGOOXuXfypLpqrPb/PyAmv8ldrsX+C5VXFKTq/8/KC+Wlx9Q8780GgmaJp7cuR8crA4CcvIDSv6Xqf2BdIAmVpYWlHrx5uMH1PwvDTZE7Lo8oBTQvIZ08/ADyqFIansSwq7DVnsq2OKtmk5y8ANqE9oWwftW+Htt/rYdtEqf3hE/oOF/UTkoPA+vRn1uGhidutqQvR/Q8L9QQtRf6bHVnvNvjtWBd9Z+QFOtCnTwPPJ9Qk1BfxIDX8vWD2jif2E+W9HVmIAtoPkn6pA5Wz+gqf8Eg4iZbFItqKSdESaZ+gFN/ScAEKO8JGwBE6qZMlM/oKv/i/ndihlXot4EAz3WFIay8wPa+n+Zbw6Jg0/CVnvEv9NV37PzA/oR8CN+iFFNYu21pJ8TfnpGfuBeWaO2YFnEyTwR2zZP5LQ1aikoSFXUcV9R9sJxrknEJsoL8XUaOyRdiRsck8AFxPkuGRuPQvV9kNIPmWDTNgD+MDbx5VZZhy0jN6DtkiZhC+b9OD7+dbA9io0jDdHfX2CLqzZI7N7G11Sw3vS9uXLO2ESFSxH0bvO6jyL2ENgSennZYNMERrJuzhTzT9PW4+eKr0RhQb9PRa7DpCjqTKQoRw/KLHPnwdf3z6rKAlIh6Tx6yHPNaDYr+m0JouD2lTqD1rRJA1tW6ZtKRoGJflEEDlYXutwybnVbAC+dUZqjdXDbguh1Ab163Fzd9/LvfuuDru9uPSRx3HoqySjkKiSYzo7YAa8lU8VJImRR9wSKkf5JuqLL/QMnFqm8JkmtKEJ8bcSzk2E16EyXwQnzWn//cqA2rUluZ/koy7GOBwM6W3fFSU5Zt3mqVs70YQ+dkw1KH4Xv19vmG+xx1QaTQQ6Rjei4IuiXHa9llVIDWcckGYVbgehMTlKcOjiJqCQIpbRqy47/ueiiSimAeHvrBt5tidu1qy2bSFIWnVbkCOLhLeBkaHqSzKG5qItr5S0Y31STwO18Hxx5T7uA83iU8Vg3bnmitx7oM7JQaK/ZGVSsVXN52E/3CGa4CHy/xPRb5kIP2vlOtjVtGLOTMf8z0ZtRKPo7PquiFC9OQC7O8d2DEPkpaihsnp7mtHlGG3psSwupsLD/4/LNx/eGJC/f/Dix3eCQr/SbXzPnfy7a6gJjiUVnvm/oZX/eWSA0bSabA/9z0Wbg5Z3nx1YrAZYQ88h+W6rqSmd5bjJU5wPV6vn1n2IolkOU/Vnsm19fkDWoulCm8X9UFH6gXK2e/iSPfLc1cSpu6DS30pm0duWDfjqtxpWXE/9zieUD1fOrpRjx+67XGGnPHTWdboDu/dV5VHdZx/9RCfmBcvXiUgz25dXJU3mLv+9S8YOPth5XT65eijMuL0K6yzz+j4rsB6oX7wSwFxfEyGo7T5+Aevq9g9ACG/b6neZo62/ErRMTPg/gvTuX0OXH/1yEH6ieC509OyHcQEZdvXjxZxU5MvkzTAABQ457xv3fpbDMHPmfC8sHqtUrNrpX10Ucb/H0cqlDJcS8PCWHlsvV4vUr9tEV48w84v+oQD5Qrt6wob08xaFGuDJR3vFTfqbvf78Bw8wl/o/KcbVYLTJz/PkUjTEwsUBB5i+/kD+vf3r3Oo7u/bMLVPXp7+RAQEuumC//c7m/c0ON7/01Ijv5VaEcYmlV8oc46Q9K5f16guiu6aQsb3KK/2PyzMDpviwCsps3yrFfke/IuM+L5Rv+yfmLkArfgCkKC3iWNyiU0ZCa4wksmpPX1KpQLv8ewlYl2C4CbJDrFD9cSuhen6DaX+Ilhv7tt05bmmyeYdLP3wUD/fmGeC4Bk3xPsZU5tlcXzE+cXAUnEf9GPntG3zTzhubQceCMv5BN7D8Jk1dPFNjEZ+YLOKRcPRUfkH8vYI7YIU6+0OY4iC7xA9WLjzI04yeCthjAJW+rv4exGdfkkOvz0rvQeS8vqoT/aaB5mCc0OoQJ8QPVKyMsl9XyDcHDBw7YXsF6q96IQ87L5QvCIb9EziSUelzw6KTlB62HZlQnr+7H8rVLAvcDsTimzTcE2zPjdVVS5Rv5DZETTpv/BfxfN8BIx3lBowQJqVnlL1FooLcPQIvn7D0xtSqyh/ARQJ2SFyDO8Zq9/EuDXNPFl8PcoJnGFKi6IxE/f0WI8+b6vCxs8COtb3ESBD2Vy8UA2mvA/Tt/1yFX9adwsYM8oI1xWiH1POSKuDg/ueSje0YZnoDj2ri8vr5+FszBkqhNilFgGsjJfPEBjYz24FUOZtmFSd2nr3DAryD3IrGkhK344fVF9fTSUMpPBHnwFXAmOIMP53+ilwMaGe3D68wJpQ93RWgDOpa/npWqmNxcCJuEVy9jUTMTE4okgiKJRZKleUkAl/7WoV+jMaLm2tlCw/vPwCCHbHT2cenF+1/Bsq4YtsAp3y7kvDIJ2T6cl2v3eO0PwI2wKtbJElqD5CyG4UvQjELhvw3k9TJV3LtnoczUjJGNLCRCKZ+cg9537tviAOBIH19VsoM2whsC+Q/46Abs0w803o/IK5L2XGHk/HdCH2+iSdAbEmYX37//UC7Wno6kz3vkDhV8pa+WbVoQkU1eBKVjWHp9UBcZZlwvxvXl1SXV2bvTVycxzT2jtHJe29nqyp+3yFVteJGZJ5jA3doFRihMwEB7oDcpYDReie9PuCcgOIRZXgYHwiL9UN15a8vQTLxLG15OsoGGAQOxQUooXObw1f+ckKBZWJx59fPpezrGF5cvntFXL0/ecY45fX3yUbrCu1L5G9kiUYBG0Ezc5EFtSKZwqxEPioRY8N3x9yxEBM3cvDReUXAvLuk/4hNOoPiDh0CGLoM7/f6YBgQhcdlCnmYBDVYV5o3RCt0EvvX/V7y/gbrVqxuDw7om//2IBovgTpFbABzn0HnBikEzzBHkv+SIfvrQXLgPGGB0isnHrf4BW0sf/2H8RqvFv/9m/OOSHvHPH3//Fytk/Wb8xsLkf/384z/5BXbjPR4acx0yDaYsQ2YfjmIYkhyO/spe/cWf8w87C/6qS67DtOV2VB5PEki/AXTqKQHyR537VL3U2w4O2TS8Pue+YdPjYbXdp+ZnGnOvntRbBfFZVSbt8IROeqFwkDycxso4pJolcHbZMiIkxGDUB0aLIp6TyarcAg44Gd1eutDQtY0i9B+SA0DdXJH/9EFzQlOyrMCwEdwcLwTgpgoe4WIxrpykCY3fIeaGJKkMQWsGBdcVkctw0O33D8cDurZMCu6IzVFjz6xME64pzWpq0mY3UilDSL3O272s73vg1eVCatNjBt2teOKcZiKfQKaKs5UeNFRX5zYisZvy+hnbisn220j5dW7as/othLJgxJye4sAuzAIv3WmksgdmyaStrXyjCTBCWbpLOC1BgL5As5PUsMFdiLdZaAaAiJowxgYF106a5sUuBzergPtCtpyYGtvkiksLWoddXKe2Xp2MkNEI+Te+rVsB1QgCbunOkFsIOKet8+OgOPhrpYQNJratVxtxRJa9Em8mt1+wB5qzmjzSajp97aVBcWDG++lAw7jfTyTJJgtBYPLXKeYTs5y6wrF5i5XmugaGsD78TSeqRDtL9G2V1UGdvnKGay0NMl29KSMUg2gtKUIZ0fA8nf4H3KCeFCQDjQzqBo9G1gn/0AgpODTIBHAO7RGkwib8wmq7mUJwAS8AHA201qlxUCMAcA4tUBBXMFZv4FsVYHpNbK1sWubUIFzljY1Ot84c1MCaMEpYBCf7Tdu2mwripPlPq+NxGml27fjVUVy61OcpYMMbM5+rEE4xpuFw+DxCcvvcL+/HWqEN+oVd4eQ/LoQ26EnSZqnO5qG57LKavT6NqcXcnnc4rHO8IPWhfNxsEbkufur0ubbGtjZCWbKjN8+UEG+1tCYJIaTVpakoXXOoDXI8xsUAr0uTVSNimDAjxGUzQhmDQ9ARiksLopONY4MxWizViGttD2ABOEojAG64S5JKasF1cNKQ8hgHsdLAhNMIgBvbnFBUQkAB9I3XYUdsypX59iGbaHs8YauuZ08rTF+tfbtHP+x7XRhbeG8FQcSMuWUNOI1UlGR8wNz3ppMBWPMrjeM2WVppGguHv+oW8A9ogRgS44nOAup1YaKzDVFmnhRENOmr7gOgAHRjw9ggi5wzJxcTnjN78w7TwV5D6MAe8HzuyMEaStgo6yx/AIPs8vCrHq/B4sfUZ3gbxgaLuKNbboa7y2nERkLZcwWhwFoDcjCNI4uuuWUUm3NIoYl8rq6pNE1oLrLpRirYgksjd4UsQXPU/QI4gGZScHVsqwK4FtYh211jN3RhQNM5ItDqSChWAjToWQFP72rG+EcFLs3+qMR0DR6NWN1d5ih6NmNIIIeWCPfDPIdJYeeImzDRnBaaGMFmocFo9xMLJT4LWIgrcDk7HBBapQVYqB5zCbev6YzUm5xGuoWEXMCnSeRmvbeFd9VQCYh32GCEstfkhGLYh5xQWk5Q7An7AFTS2PKO+DnthEJlk/r6zSbfwG99bcmV0og75TRiU3DEIKHMYFIa4dFGuNmETgVopEOjZmKQLV2wjGwGet7sBr3D4MJxYIxGZkAoe9ifRnB2jxMKpREGLjwwwDFGc8Bnk3Ct4dLsqmITNr2bzU/hviQ6PFLc76DDaWTpLleMRgg4RiNEc5xGKrAVJkJyY6o1VMqc08iRbagznSM6Ga2NYgP36iojLhJnVEQTqtnkNNJpHHBCafCOjgEpSni1+QagYDTiuDxlaNXV1n9AWW2z3Sq46ULaTSJjm1i8zLBqipqVxUILEn3ZnBxW41hmSWzdE9xhi0fmxk01tiGtsm0WG+SLvjp5a/cx2qA0YrqULYnLZoRCDLJH6XXq0cKAJD6ctmLsSwwSCYVMhwXso6pUUvLZrPOm11W6btAlgkMamSE4jPwRHNIIOuaZbSiTNzJUBIc5LGoOF+CRsuZU2LzzHumx0dkl4FbUZUOVmNEIAcdohGhuGV9swl2C5hiNEM0xGlG6cDaGjWY5CXozGDhOI2bTYlvzDMvjveyB1ZjFfa4w8V3L5jTleAm+Ow9spjFbCBuyKnyldH0RW4OpTiIXlfoKtqD8np/UJSpkapMUGqGRPgNnDwyXsiUxSF4gAmjRbZCEWoasuVg/oGvOhIJJZx67QRRbVnoDHEgjFBzQyAzB4VpDQlkCtGjPE+txbYdCMxhbjnnKo+l/F1JIBBKwOQNOIwCO0giAYTRijw3sZUehsQCm7SE0cvZeXYQoRHO0J5cJNgjufLqFJSbNLiugGn3Poo8MGLPGnNOI3aqbcYP0+dntCaeRXZtHXwScuv89oyfubRRbUlwyC7LxisU/PAp0DBqKQhsFuxL4viAoEgX6UTfCUolLYGrV8aSx74pMuX7ANsyAy2aEMgO4kyi0wADqQ7pOgUaWzOEtK3TNxYTFk5utUAJ1Weq24pCooEl3wvY4ocBaWyK4XWDCaLcKodG2D0wLWXMmXWuUUJYV4vg6Kt99SLPkzbY7WP6mbnSYFFxQPQZoJoLbhTPsyMV82t92yehtpBEgFLrWgFBmlSW7akzaNH/b7DaTTjBpamkObUYjfW/M4txZZR/0HW2YiZZCZbfJjLnt9RiNEM1V9I9OW2KWNyhgK2O+6VspUo9KNPv3IWeNFm6a0jldfk6w+3CYENjBXnpInaKG8HkCt9aVzFHqB3W2n77VmfPKOVlRy2hPqiOf02CLamwdsghl1hjqyyW8aB695mcKTrM+oAQaoYQClZy+iC1X0egItHtAcTjEIOtofxD5U0IBGllpq2lmIY36JHq2hnrbjMnyNQRHaYSDG0ahBXVpeQMQmjMQCjIkEopSurTnsukNsEAKTqHgKe/JaaQ+5N0KCi76eJd+1w0Dx2iEaE4ZAXm0mLjpjrcTTFtMhkIbDbFW5jNFOcpRSdA+mfj81XShzEyZ4Wx6by9vd6tnnP3tOrYUuaz5aJdQ5rLZ5mbhqB1pIaWGN1x0oWnkDOiDr0AjjC3N9btk3N2By0ZCMXXQemwiNg0N/Yqj2xWExR6a1CBbNj/hgTyXxldLTGpQcxpocHvwIJt/SNOhV/XVtx00DU4jJEKEVuPaNXvQG+wnpTRCwOmgQZLFZnjDwq1BuchNY9AQTtluLMGu1sdmyvuV+xXdPj/YXgh/N+y5QaD8auu8AHG/giLrSCifpDeCjbc2PFvTd4YFDPfYdNcUBCylqzVKx+Cdz8ouJi6fgm1K1hruKUEaaWvA+dQDpPFkLc7vSHoMUxZgNxrKV0C/1qdhcyALR3C41tQbuvhTn6k8ewq37CTlOeAKKrsM66fZpEHBeToaMTC/gSWdznNwsNIglNPffmA1p2KfzCdigwRXy5AGjZMhqN305hIqPtzC1e4xwakP8pNDa00JyMlbJDy3Mgk2TKch4FxaCUkccb+cUJKfaIsIK3MRrSU8ADGizdteOtBo22Wk7nqDeCuDEUrCXniV4OFokE3tIcxu0tjRiwKz2k5+igpdgUfNtnNg9GiM1iV/bMoy9ZkxpmY46RpLqmbITZNoxMAphQNWtw/yD0qH3SVRLQNrMmE2WZ/brNXd9izmO2YNsSPN7vI9KWNrkgytHTzolJaYxu2Kk+o6B0GE1hCuoytVj0Uab2n203JhajPTg0azAD/5QVqvfcAIhZgnLxBZB6J6bBsuDYuXFWiE4Ideu5dQAcJAYMT+picwKkin9Q+XQMREB4otfFqBBIOk7Sj4cIoxPyY1FBysz3FCuxRWGZBkmmpjK87V1BYCAXC9YC8kXWsAjm4BmhHN0XwNwd1CI1hLwC5Yyg8KA1VCcJLQ20Rw1rDOCKU57GCyDoTCrXVWmTZYtcce3ArtqEBDkpSeoRKCCgOzv8U7H0qMETy77vNXu8ETDgv9M8dUwBLxmE3vU44JUpsfKn2HBkL/jG3+jADxcrSFRRIFUT02G3u8oeH17XHo1NgFm2yPTfq/iYR8BZGPypL2OamPxXqzepxQgEYooUCTeJfuZgAa4ay727ac+CZsyNdwvWbw2zNoHmCVikajG5T7MZ8zGY2A5mgTCoo9JtLIFFyBJwXelOCjLAV9RASfyQ8i8Z9KGcWMqB8eGwHXYTW/5gGPoqF6TKORqRtiSL5nKOzFzZH0YzDpi/iplGgsgZUMuSXes0Q5sylq/BMR1Ux9CRrs93TwweJQRQbqrPzHYLIQ1ECXvwgEsn2wsYpoq0koRcU5qB6HigcLPHc5Ckd0sEsKl+BmW24JglW2SSEyxfCBb9B6VKRVAS6bEgq47LYqZCvQ0CP8Gxsem60sf2VzyOdU/NKTydIPf4gdpEgVE60KJ8IBXakitgJzK75k1rB+sb+c5S81+nhrWP1BfMI7EH4hIQmK+7CuPReng+JGgU3OC+yngtIqJKilIsYzZ+OdkNfuofztWrIQvxkLJ3q9ZmDoAI3SVYY/GQdi85FxHcFI9owVak9wxMr3lOVMlPEYDhCq52zB2Rd8Ns0E0/qdAa14QnM8jmp6DG1Q0IcFo9kO2SHG52Fpn5t1R5o0SiML8SpzcCYDJ1wBrbhWglUFK1JSlOW6bocxxZG40Jyda+w7Nvf1qCtX6C9zmYvhCyeOWYhUZCzIMTUPmpgiYRoWXUudLlXEmUeau2cCDmZ4xF1SK8SRwA/iLbYEYcwjafwAOL4r7QCCEJqHp/Gk+lpCA91J8JKYluyXAbbwZaA2ipDTC0FQ8RTYJpFr5yNeoJFGJBSZTqbgloJtFxV8AzEnZxew4EXMJmfI+DTXyYFGAqFP+U6R+cNjJMYkkagSG9ukEd4egC6SPm6WPfmHhaU0mHuFqvmsAFDvSh+AEgtyVov0InvAFSrNEbORr4zoj/YNfGlQID2H96UZbzYV2Mjw3Ym0pRCniD1UcBf+5wjcVdO0Wa40rPqyg6BlD/ETaVR2ZVVTT+ZItpm/MN+9j6tuFK6jdG0epSixycgw+3T5zxfkikiSEd86iWY08sLRPntnUWwL31dkCUsPkfnsAbhedr85fLvwElCfDspWbY0yJaBhGVAtjTjoTH8H+3YZcT7sUwrwHcWzBEoZOuyMPsPeuktKo8L35xotRv9+J+mJKCrdDmPDCn8ccz/16vEfEouHJvsOn/qK09L153dbDk/VRw6ny2nO7jpBHAFkbAnLGrn2pD3u8YR11Rv3J7YbfG2JWvIs5/9rzC3SCRxWz7l9E6frBKyzurs649KUV1nXa+qYYdT05CPHuf9vjNYS3wttE5n1jrxOo7EYUfErjY5zNAilDSvvLgRYa4o7SfwZ0JDsTbL5HfYNyjouQHIC/3ay6Bzqf0RmcNhJYQtrtuI3rfZhb8DiFHM46B22rfq/q7q+SOryf/qgUgNlhW+eAAAAAElFTkSuQmCC;" vertex="1" parent="1">
          <mxGeometry x="30" y="580" width="57.13" height="60" as="geometry" />
        </mxCell>
        <mxCell id="rYe8Sak9IraCX6kGYXkc-47" value="Distributed&lt;div&gt;Tracing&lt;/div&gt;" style="shape=cylinder3;whiteSpace=wrap;html=1;boundedLbl=1;backgroundOutline=1;size=15;" vertex="1" parent="1">
          <mxGeometry x="1020" y="258" width="70" height="80" as="geometry" />
        </mxCell>
        <mxCell id="rYe8Sak9IraCX6kGYXkc-48" value="" style="endArrow=classic;html=1;rounded=0;flowAnimation=1;dashed=1;" edge="1" parent="1">
          <mxGeometry width="50" height="50" relative="1" as="geometry">
            <mxPoint x="960" y="300" as="sourcePoint" />
            <mxPoint x="1020" y="300" as="targetPoint" />
          </mxGeometry>
        </mxCell>
        <mxCell id="rYe8Sak9IraCX6kGYXkc-49" value="" style="shape=image;verticalLabelPosition=bottom;labelBackgroundColor=default;verticalAlign=top;aspect=fixed;imageAspect=0;image=data:image/png,iVBORw0KGgoAAAANSUhEUgAAAOEAAADhCAMAAAAJbSJIAAAA1VBMVEX////+cTkiIiIAAAAfHx/b29v+ZR/48O7j4+Pg4OAYGBgODg4dHR309PTp6em+vr6YmJhERET+bjQvLy/+ay5mZmYVFRVaWlr+aCf/+/r+ZB3/0sPLy8vz8/MRERGCgoI7OztOTk52dnafn5/4oYT+6uP+fk7eyMHn1c/t39qNjY1gYGC5ubnFxcWkpKStra36wK3+dT72rZX93NH7nX39jGP8ybj5kGv95Nz41Mj8vaj1k3H3nX79hln+e0j6qI3/tZv/kGjzsp3/Xgrvvq/0fE7xxrmZMpaDAAANCUlEQVR4nO2de0Oq3BLGRVDamu4OkYGludvZObvLLrN7b1n70vf/SIfLugwwA5gg0Mvzl9oS1o81zMyatbBGo1atWrVq1apVq9bSui+6A7nreFF0D3LWo2V97lHUDcV4LroTuerJVBTrsuhe5KgHS1EUY6YX3Y/8dGw4hIr5T9H9yE1XpuLJfCi6JzlpaviAn9fZ3HFCxfpVdF9y0a2lSE2L7k0Osl8MCWheF92dHHRkgiFUrPei+5O59qCNOs7m5bMFRfvZCBAq5lHRXcpYV8EhdO30cwXF+zCfY6c3RXcqUz2ZUUTrseheZaj3iI26g3hsF92v7BR2M59uEG+xIXT1WTIbfYYOoRMx7oruWkY6QtwMs9O9ovuWiR5IwE+S2QQy7oidfoYMfEEPoWun86L7t7LuYwGdoFh0B1fWTYyNeoN4VXQPV9QlFQrlKFY7KOqzJMCqB8Xr+LvQt9MqB8X7RBt1zXRWdDdX0HGCm2F2Wt0Ft19phtBRu6rORk8JWN0a+N9UNuqqojXw5FAI7LRXdG8/oiUAFfO16N5+QI8ooUHMNIbVczZ6GyWZEe6ngs7mDh2r9gN1e1Yus3lAObwJL154U5RR0X1eSj28+GS5RYsfuP1WLLN5RTNuViC9wtPxSm0lmqIM3Jv0cCutlLPBJ/ZtXpPZw+3Uui2008voEbdRWa8gKqiVme7r6AgaxzIzI6b+RlWm+9hSmhcKpW4Jf1oNO91DAUO13zd8nCtRA7eJiX3wHiPqG5UIirGhEDQj8tPyB8Upbn7P4fVeHR/qCqzu4zdYO7rxgnI2Zd9fe4u7GWzzDO5yy76/Fl/uxXt9j3ukkq/u45M/Ymc3UWwsdWYzxbtMbCsh1vdLvZBxh9+F1CroHj6I7T9r7fQywt1jzEo2fkWU0jobHa+jyf7yFzZ/gefo5d23iK/YywA353m1LnIzPAFShuVc3Z+jNgpm7jeC0BKjSWQ2kRSoFMIn9qZINPd+84Kh/luY4Zyo2ZQxs8FDIZgsPLcF4VAm2MQqcQmDoo53VLqZS0sUffW2+RT/vTJuJcLHQk7anbkEIAQPBl0SzqZsm6TnQ3QI30SDK0ux/steO4RgloTfv2XbX9sjfKK4m6YzJUAIfAmxa8p6XTdErBZ4xi0LS96jlZDQmAl6vPhYrqB4nxQKvQw0QAi9LGEAZdryRuzjljUX714LEoKSDJ4rlCkoJobCP16DECF4lJQIilZZMnBiWdeUNW7fXYYIQYFxVPLaIr5aBhZ12TwwTAiiOrGbvySDSG0MEg1strEmMoYyZ23g06iS1BaJ+qEcQr4rI0IIAIjaYikW3HADA8tIYqEpQgifXyMymzLsW4xZsfclJsbW/9gngtD4K1pNS+ts8Ik92KgmV7yjhDDkRZ9Q9BGLXsjAd5VADyHNDyFUTDnWeNpQeGaDJ1yWnL+CiiFKKMM+YacFb+bHTQvePOASYIQwtSOePSl0uk8spb3IqR3cv4cSAoMmnh+S9YAChC8fgWzGDnyOEcKIQdTAC3x2H334NbDuEDA8nBC6Eny7X3HTfarYKe8bPfg7CighjBi41StmUc6GqHGDPdtPaQiVmRwiogZe0Oo+vsJp/JX9nQetmCIErtfGd78XtJUIv2ngA4WhGE4RwrA/J5xNEQtuf+g9skzhnJwmBPEAn+4XsZXoHl+xBz2xwy1IQhgxiF0oBSy4ETVusFs74ohoQuNFfg3fNKYo63Y2hJuRNe6GHf01kx/sT9F9/G3QfyIovjXWK3zCCn+RJVrnjSGE+4OJp9vXvG+R2BgEfmoOqd7EEAYeRsD31xqzdWY2ESfC+gBmAch92o4hhP0n9gOs1dngVxnWqO9/R3sZR6gMX+WXiYdO1jjdx5emA6U/+1aJdDOG0Bi+woBH7K9d32Z+vN4Q2hjUexyGLgRJaAyfggG96NV9/Km06G3Sfw0yEoTG8C5iftR0fz3OhtqKjzTtLyAjSmgMb5Dbi5iYrWl1H4/Izm14i1zh6ZUhGBFCw7rG1kF7D8SPTazlJ9CI+rvbW+sVy48FY4TQsJ6wKpP+aFjE822Gkr+d2vipmRWZjwijvTBQQuMNc//6oh3zfO0agmLC70CY1uuPyHd0fAyxhyp/LNrxJ8j9CTd8xT7A2F6EGaf4GEYJH+7CESYisNSRj9I8Y28OQ+6DLV0kENq3x+0UR885KKb8HQgnxEGnx+r1bbGtFCHUHxXKvYQPnqezwZ+cRLvRfpaMzLRjCH8srNSHtvKsgb/PUl5nj/HtnV3tecIYzo8S3AuQaT7lGhP1X8dLMFrPfzyovThC+/1uGb5/ct8pZT8+L8N47AbIS5pQv0x/OMM0jtYygbIv38wlGGevU1bJjhDeTq9e0vNZx4v1TRDvn4z0Psc0XhSUUHkxU18qwzy+XO/6zPQp/ThyRQhTy7BeHte//nT/ZKYex9UIHftc8/hxTa+XY/wYYXF8HuNR+vvxY4SG9bfgbVH6Ij3j8oRORC3Bj7rYV2kZh0sSOuNXAj5X+lG6+3E5wuLtE8pOZavLEBrtsowfVxpbHXKXmEjo8JXtgRJXv5SECWxaQnP4XEY+V/ObWMZ0hGZ7UY69z7jmcTOFNISmdVRmPlfzG5IxmdA0Sz1+XPfU5CqJ0DTQinIZRSTl8YSmUhk+V9NrJHi0YwhNBauWl1rTaKJjkYSmUTk+V5FxJAgNc3ZVRT5X038UM4nQ4ftVVT5X08XMjCM0zJdK2ieU/iqqyGaY0LBeLqvO50p/f/MZQ4SGdf1QrqeZV9Ctl8wFCA3rrqzp9YdkvzvJnCEJDSvf1YdC9HAnc5rf15+Pz5W46+zPyVerVq1atWrVqlWrVq1atWrVqlWr1r9dvS+0erDBBtZ6o08ejzgLfNdy34zg8YH6oM1K2lc1SupXt8FXv0HnP+6bVqh1c3vy7fs+/IdjZ36Lze0A+86AHfLAO0qHvXMv4VbXfzMOsbCvqJFrmBfhJkroone7zRM5ACghP8ngm2cWLc4LCQenuRE2KXFC7w0nxBpqY/WEF7zP/BYaJBx1Nf8YTf/DVoedwCfkp9sPdGzXb1QOQgdI3R3RhKyzGmfACf0zlJWw2Rz7BogRnrAvqVuNOEJ2vhwIOyHxE25OejShyiRaN7uHBOE5+053h39CEGrbuRC2dndC2uYQvsNHCdWv518dnV3sqOpmYAgihI5z8j7pfJPnxAmb3YM8CCM6Z2dUvzdiCEH7CetvZxcjHDX9K6ANZEyhCJsqiDu5EfY0DfQ3BWGj9413+AtCeDpgfwSekiQc7MhGuREejtnZeQBOJGxssIuinkUJt/gXvoMvkITyrPkRnof9XgrCxqnfme7PCOE+uwnHh7A9TSgsJz/CJncL4peeUxAe+JbY3QoT9rf9m3BzO/Bvq2nCpnqeM+EhdzPyrklBeOJb9vggTLjLb8JgHo4SsmsxyZeQh394x69AeMKv10nwNCjhDiO6yJWQGZXWBFOZj1spv6cHu42gMMJxa1vzz50n4QG/5hfgww97mj6PhJPw/47HCNX+BXuxlR9hH73mKaIFc0+elxCEI369BjBTiSHsTbwroqn5EbLIrTUDB02O+GwIte4IEE54YHUNMBUhz6ZY6MyB8DvPkM8CHycRtk7ZWI09f8IIm5rMyTvBaRFJ6Ex6/Zde7naaOeEG4kdpwlFv5KjfujjUWERg+QgnhArc1xSh49xazOl4Zr2TOSGfpnZCh0QJtYmn7a460DiGHxIwQq2TjrBxMJavMyf8yUcndL2J+SGvRAl1dwMzYN4MPShJ2B9rwoyyJuyzsQjXg9LO8cNVDF8dP8Y1tTEsx9GEPEdwDT5rQu4P1XDZMhVhRz3gMQ8SDnZb7MKNAxGDJhz5g+gm4BkTXnAb/Rn5UzLhWP0m01hA6FYURRIBIwZN2LgQg5gtYV+LVBoSCAdjV91uV1XVA1gGlIRa1/m8v4kcOYbQ9ts7AeYwU8IdfA5AEw4OPJ18vzgLhXNJ6LuXn3wQQZSNIeSn655nSsh7Jae9SYQq0jBEOGY+i2fzWnydRjgAlrtNdjazI4yz0Q8Tbk5Y1/iMDDibWMLQrZ4JoagkoQf7IGFHWK+o/IjbNZawcciTpMwIuR8N1lJWJAQV4T5ftZikI+wHBjEDQu7txNQza0LhbLo8FMUT8vwxM0JR0DzH/746YY9nNlo/FeEXOIirE4pSA26jWRDKlYuDVIQNObXMgFAUrAcnWxHtZ0Qo7G68n4pwpGrZEW4Jixh0w/In21kQcrtj8SiJUBTpMiDkfg5VNzNCEZC6F6kIG3JetirhRjC85kYoZs7bo1SEP0W/qkIonIfnbJIJWe5WJcJRk8+FW6kIRXq7OmGctvxz+dr2CZnIJ3x583Ef/1w9BUdxTfaEvQ5NvXd5m1V96ZeNGHmzgR5/B98gsyymQHOoDfnVwFFGePtR4plq1apVq1atWv8e/R8US02jWOLZ6QAAAABJRU5ErkJggg==;" vertex="1" parent="1">
          <mxGeometry x="1000" y="326.25" width="47.5" height="47.5" as="geometry" />
        </mxCell>
      </root>
    </mxGraphModel>
  </diagram>
</mxfile>
